  0
SECTION
  2
BLOCKS
  0
ENDSEC
  0
SECTION
  2
ENTITIES
  0
LINE
  8
0
 10
-94.7
 20
-34.5
 11
40
 21
-34.5
  0
LINE
  8
0
 10
40
 20
-34.5
 11
40
 21
34.5
  0
LINE
  8
0
 10
40
 20
34.5
 11
-94.7
 21
34.5
  0
LINE
  8
0
 10
-94.7
 20
34.5
 11
-94.7
 21
-34.5
  0
LINE
  8
0
 10
-91.1
 20
-19
 11
-91.0904
 21
-18.8171
  0
LINE
  8
0
 10
-91.0904
 20
-18.8171
 11
-91.0618
 21
-18.6362
  0
LINE
  8
0
 10
-91.0618
 20
-18.6362
 11
-91.0143
 21
-18.4592
  0
LINE
  8
0
 10
-91.0143
 20
-18.4592
 11
-90.9487
 21
-18.2882
  0
LINE
  8
0
 10
-90.9487
 20
-18.2882
 11
-90.8655
 21
-18.125
  0
LINE
  8
0
 10
-90.8655
 20
-18.125
 11
-90.7658
 21
-17.9714
  0
LINE
  8
0
 10
-90.7658
 20
-17.9714
 11
-90.6505
 21
-17.829
  0
LINE
  8
0
 10
-90.6505
 20
-17.829
 11
-90.521
 21
-17.6995
  0
LINE
  8
0
 10
-90.521
 20
-17.6995
 11
-90.3786
 21
-17.5842
  0
LINE
  8
0
 10
-90.3786
 20
-17.5842
 11
-90.225
 21
-17.4845
  0
LINE
  8
0
 10
-90.225
 20
-17.4845
 11
-90.0618
 21
-17.4013
  0
LINE
  8
0
 10
-90.0618
 20
-17.4013
 11
-89.8908
 21
-17.3357
  0
LINE
  8
0
 10
-89.8908
 20
-17.3357
 11
-89.7138
 21
-17.2882
  0
LINE
  8
0
 10
-89.7138
 20
-17.2882
 11
-89.5329
 21
-17.2596
  0
LINE
  8
0
 10
-89.5329
 20
-17.2596
 11
-89.35
 21
-17.25
  0
LINE
  8
0
 10
-89.35
 20
-17.25
 11
-89.1671
 21
-17.2596
  0
LINE
  8
0
 10
-89.1671
 20
-17.2596
 11
-88.9862
 21
-17.2882
  0
LINE
  8
0
 10
-88.9862
 20
-17.2882
 11
-88.8092
 21
-17.3357
  0
LINE
  8
0
 10
-88.8092
 20
-17.3357
 11
-88.6382
 21
-17.4013
  0
LINE
  8
0
 10
-88.6382
 20
-17.4013
 11
-88.475
 21
-17.4845
  0
LINE
  8
0
 10
-88.475
 20
-17.4845
 11
-88.3214
 21
-17.5842
  0
LINE
  8
0
 10
-88.3214
 20
-17.5842
 11
-88.179
 21
-17.6995
  0
LINE
  8
0
 10
-88.179
 20
-17.6995
 11
-88.0495
 21
-17.829
  0
LINE
  8
0
 10
-88.0495
 20
-17.829
 11
-87.9342
 21
-17.9714
  0
LINE
  8
0
 10
-87.9342
 20
-17.9714
 11
-87.8843
 21
-18.0482
  0
LINE
  8
0
 10
-87.8843
 20
-18.0482
 11
-87.8345
 21
-18.125
  0
LINE
  8
0
 10
-87.8345
 20
-18.125
 11
-87.7929
 21
-18.2066
  0
LINE
  8
0
 10
-87.7929
 20
-18.2066
 11
-87.7513
 21
-18.2882
  0
LINE
  8
0
 10
-87.7513
 20
-18.2882
 11
-87.6857
 21
-18.4592
  0
LINE
  8
0
 10
-87.6857
 20
-18.4592
 11
-87.6382
 21
-18.6362
  0
LINE
  8
0
 10
-87.6382
 20
-18.6362
 11
-87.6096
 21
-18.8171
  0
LINE
  8
0
 10
-87.6096
 20
-18.8171
 11
-87.6
 21
-19
  0
LINE
  8
0
 10
-87.6
 20
-19
 11
-87.6096
 21
-19.1829
  0
LINE
  8
0
 10
-87.6096
 20
-19.1829
 11
-87.6382
 21
-19.3638
  0
LINE
  8
0
 10
-87.6382
 20
-19.3638
 11
-87.6857
 21
-19.5408
  0
LINE
  8
0
 10
-87.6857
 20
-19.5408
 11
-87.7513
 21
-19.7118
  0
LINE
  8
0
 10
-87.7513
 20
-19.7118
 11
-87.8345
 21
-19.875
  0
LINE
  8
0
 10
-87.8345
 20
-19.875
 11
-87.9342
 21
-20.0286
  0
LINE
  8
0
 10
-87.9342
 20
-20.0286
 11
-88.0495
 21
-20.171
  0
LINE
  8
0
 10
-88.0495
 20
-20.171
 11
-88.179
 21
-20.3005
  0
LINE
  8
0
 10
-88.179
 20
-20.3005
 11
-88.3214
 21
-20.4158
  0
LINE
  8
0
 10
-88.3214
 20
-20.4158
 11
-88.475
 21
-20.5155
  0
LINE
  8
0
 10
-88.475
 20
-20.5155
 11
-88.6382
 21
-20.5987
  0
LINE
  8
0
 10
-88.6382
 20
-20.5987
 11
-88.8092
 21
-20.6643
  0
LINE
  8
0
 10
-88.8092
 20
-20.6643
 11
-88.9862
 21
-20.7118
  0
LINE
  8
0
 10
-88.9862
 20
-20.7118
 11
-89.1671
 21
-20.7404
  0
LINE
  8
0
 10
-89.1671
 20
-20.7404
 11
-89.35
 21
-20.75
  0
LINE
  8
0
 10
-89.35
 20
-20.75
 11
-89.5329
 21
-20.7404
  0
LINE
  8
0
 10
-89.5329
 20
-20.7404
 11
-89.7138
 21
-20.7118
  0
LINE
  8
0
 10
-89.7138
 20
-20.7118
 11
-89.8908
 21
-20.6643
  0
LINE
  8
0
 10
-89.8908
 20
-20.6643
 11
-90.0618
 21
-20.5987
  0
LINE
  8
0
 10
-90.0618
 20
-20.5987
 11
-90.225
 21
-20.5155
  0
LINE
  8
0
 10
-90.225
 20
-20.5155
 11
-90.3786
 21
-20.4158
  0
LINE
  8
0
 10
-90.3786
 20
-20.4158
 11
-90.521
 21
-20.3005
  0
LINE
  8
0
 10
-90.521
 20
-20.3005
 11
-90.6505
 21
-20.171
  0
LINE
  8
0
 10
-90.6505
 20
-20.171
 11
-90.7658
 21
-20.0286
  0
LINE
  8
0
 10
-90.7658
 20
-20.0286
 11
-90.8655
 21
-19.875
  0
LINE
  8
0
 10
-90.8655
 20
-19.875
 11
-90.9487
 21
-19.7118
  0
LINE
  8
0
 10
-90.9487
 20
-19.7118
 11
-91.0143
 21
-19.5408
  0
LINE
  8
0
 10
-91.0143
 20
-19.5408
 11
-91.0618
 21
-19.3638
  0
LINE
  8
0
 10
-91.0618
 20
-19.3638
 11
-91.0904
 21
-19.1829
  0
LINE
  8
0
 10
-91.0904
 20
-19.1829
 11
-91.1
 21
-19
  0
LINE
  8
0
 10
-91.1
 20
19
 11
-91.0904
 21
19.1829
  0
LINE
  8
0
 10
-91.0904
 20
19.1829
 11
-91.0618
 21
19.3638
  0
LINE
  8
0
 10
-91.0618
 20
19.3638
 11
-91.0143
 21
19.5408
  0
LINE
  8
0
 10
-91.0143
 20
19.5408
 11
-90.9487
 21
19.7118
  0
LINE
  8
0
 10
-90.9487
 20
19.7118
 11
-90.8655
 21
19.875
  0
LINE
  8
0
 10
-90.8655
 20
19.875
 11
-90.7658
 21
20.0286
  0
LINE
  8
0
 10
-90.7658
 20
20.0286
 11
-90.6505
 21
20.171
  0
LINE
  8
0
 10
-90.6505
 20
20.171
 11
-90.521
 21
20.3005
  0
LINE
  8
0
 10
-90.521
 20
20.3005
 11
-90.3786
 21
20.4158
  0
LINE
  8
0
 10
-90.3786
 20
20.4158
 11
-90.225
 21
20.5155
  0
LINE
  8
0
 10
-90.225
 20
20.5155
 11
-90.0618
 21
20.5987
  0
LINE
  8
0
 10
-90.0618
 20
20.5987
 11
-89.8908
 21
20.6643
  0
LINE
  8
0
 10
-89.8908
 20
20.6643
 11
-89.7138
 21
20.7118
  0
LINE
  8
0
 10
-89.7138
 20
20.7118
 11
-89.5329
 21
20.7404
  0
LINE
  8
0
 10
-89.5329
 20
20.7404
 11
-89.35
 21
20.75
  0
LINE
  8
0
 10
-89.35
 20
20.75
 11
-89.1671
 21
20.7404
  0
LINE
  8
0
 10
-89.1671
 20
20.7404
 11
-88.9862
 21
20.7118
  0
LINE
  8
0
 10
-88.9862
 20
20.7118
 11
-88.8092
 21
20.6643
  0
LINE
  8
0
 10
-88.8092
 20
20.6643
 11
-88.6382
 21
20.5987
  0
LINE
  8
0
 10
-88.6382
 20
20.5987
 11
-88.475
 21
20.5155
  0
LINE
  8
0
 10
-88.475
 20
20.5155
 11
-88.3214
 21
20.4158
  0
LINE
  8
0
 10
-88.3214
 20
20.4158
 11
-88.179
 21
20.3005
  0
LINE
  8
0
 10
-88.179
 20
20.3005
 11
-88.0495
 21
20.171
  0
LINE
  8
0
 10
-88.0495
 20
20.171
 11
-87.9342
 21
20.0286
  0
LINE
  8
0
 10
-87.9342
 20
20.0286
 11
-87.8345
 21
19.875
  0
LINE
  8
0
 10
-87.8345
 20
19.875
 11
-87.7513
 21
19.7118
  0
LINE
  8
0
 10
-87.7513
 20
19.7118
 11
-87.6857
 21
19.5408
  0
LINE
  8
0
 10
-87.6857
 20
19.5408
 11
-87.6382
 21
19.3638
  0
LINE
  8
0
 10
-87.6382
 20
19.3638
 11
-87.6096
 21
19.1829
  0
LINE
  8
0
 10
-87.6096
 20
19.1829
 11
-87.6
 21
19
  0
LINE
  8
0
 10
-87.6
 20
19
 11
-87.6096
 21
18.8171
  0
LINE
  8
0
 10
-87.6096
 20
18.8171
 11
-87.6382
 21
18.6362
  0
LINE
  8
0
 10
-87.6382
 20
18.6362
 11
-87.6857
 21
18.4592
  0
LINE
  8
0
 10
-87.6857
 20
18.4592
 11
-87.7513
 21
18.2882
  0
LINE
  8
0
 10
-87.7513
 20
18.2882
 11
-87.8345
 21
18.125
  0
LINE
  8
0
 10
-87.8345
 20
18.125
 11
-87.9342
 21
17.9714
  0
LINE
  8
0
 10
-87.9342
 20
17.9714
 11
-88.0495
 21
17.829
  0
LINE
  8
0
 10
-88.0495
 20
17.829
 11
-88.179
 21
17.6995
  0
LINE
  8
0
 10
-88.179
 20
17.6995
 11
-88.3214
 21
17.5842
  0
LINE
  8
0
 10
-88.3214
 20
17.5842
 11
-88.475
 21
17.4845
  0
LINE
  8
0
 10
-88.475
 20
17.4845
 11
-88.6382
 21
17.4013
  0
LINE
  8
0
 10
-88.6382
 20
17.4013
 11
-88.8092
 21
17.3357
  0
LINE
  8
0
 10
-88.8092
 20
17.3357
 11
-88.9862
 21
17.2882
  0
LINE
  8
0
 10
-88.9862
 20
17.2882
 11
-89.1671
 21
17.2596
  0
LINE
  8
0
 10
-89.1671
 20
17.2596
 11
-89.35
 21
17.25
  0
LINE
  8
0
 10
-89.35
 20
17.25
 11
-89.5329
 21
17.2596
  0
LINE
  8
0
 10
-89.5329
 20
17.2596
 11
-89.7138
 21
17.2882
  0
LINE
  8
0
 10
-89.7138
 20
17.2882
 11
-89.8908
 21
17.3357
  0
LINE
  8
0
 10
-89.8908
 20
17.3357
 11
-90.0618
 21
17.4013
  0
LINE
  8
0
 10
-90.0618
 20
17.4013
 11
-90.225
 21
17.4845
  0
LINE
  8
0
 10
-90.225
 20
17.4845
 11
-90.3786
 21
17.5842
  0
LINE
  8
0
 10
-90.3786
 20
17.5842
 11
-90.521
 21
17.6995
  0
LINE
  8
0
 10
-90.521
 20
17.6995
 11
-90.6505
 21
17.829
  0
LINE
  8
0
 10
-90.6505
 20
17.829
 11
-90.7658
 21
17.9714
  0
LINE
  8
0
 10
-90.7658
 20
17.9714
 11
-90.8655
 21
18.125
  0
LINE
  8
0
 10
-90.8655
 20
18.125
 11
-90.9487
 21
18.2882
  0
LINE
  8
0
 10
-90.9487
 20
18.2882
 11
-91.0143
 21
18.4592
  0
LINE
  8
0
 10
-91.0143
 20
18.4592
 11
-91.0618
 21
18.6362
  0
LINE
  8
0
 10
-91.0618
 20
18.6362
 11
-91.0904
 21
18.8171
  0
LINE
  8
0
 10
-91.0904
 20
18.8171
 11
-91.1
 21
19
  0
LINE
  8
0
 10
-24.95
 20
-4.89608e-15
 11
-24.8133
 21
2.60798
  0
LINE
  8
0
 10
-24.8133
 20
2.60798
 11
-24.4048
 21
5.1874
  0
LINE
  8
0
 10
-24.4048
 20
5.1874
 11
-23.7289
 21
7.70997
  0
LINE
  8
0
 10
-23.7289
 20
7.70997
 11
-22.793
 21
10.1481
  0
LINE
  8
0
 10
-22.793
 20
10.1481
 11
-21.6073
 21
12.475
  0
LINE
  8
0
 10
-21.6073
 20
12.475
 11
-20.185
 21
14.6652
  0
LINE
  8
0
 10
-20.185
 20
14.6652
 11
-18.5415
 21
16.6948
  0
LINE
  8
0
 10
-18.5415
 20
16.6948
 11
-16.6948
 21
18.5415
  0
LINE
  8
0
 10
-16.6948
 20
18.5415
 11
-14.6652
 21
20.185
  0
LINE
  8
0
 10
-14.6652
 20
20.185
 11
-12.475
 21
21.6073
  0
LINE
  8
0
 10
-12.475
 20
21.6073
 11
-10.1481
 21
22.793
  0
LINE
  8
0
 10
-10.1481
 20
22.793
 11
-7.70997
 21
23.7289
  0
LINE
  8
0
 10
-7.70997
 20
23.7289
 11
-5.1874
 21
24.4048
  0
LINE
  8
0
 10
-5.1874
 20
24.4048
 11
-2.60798
 21
24.8133
  0
LINE
  8
0
 10
-2.60798
 20
24.8133
 11
5.54001e-15
 21
24.95
  0
LINE
  8
0
 10
5.54001e-15
 20
24.95
 11
2.60798
 21
24.8133
  0
LINE
  8
0
 10
2.60798
 20
24.8133
 11
5.1874
 21
24.4048
  0
LINE
  8
0
 10
5.1874
 20
24.4048
 11
7.70997
 21
23.7289
  0
LINE
  8
0
 10
7.70997
 20
23.7289
 11
10.1481
 21
22.793
  0
LINE
  8
0
 10
10.1481
 20
22.793
 11
12.475
 21
21.6073
  0
LINE
  8
0
 10
12.475
 20
21.6073
 11
14.6652
 21
20.185
  0
LINE
  8
0
 10
14.6652
 20
20.185
 11
16.6948
 21
18.5415
  0
LINE
  8
0
 10
16.6948
 20
18.5415
 11
18.5415
 21
16.6948
  0
LINE
  8
0
 10
18.5415
 20
16.6948
 11
20.185
 21
14.6652
  0
LINE
  8
0
 10
20.185
 20
14.6652
 11
21.6073
 21
12.475
  0
LINE
  8
0
 10
21.6073
 20
12.475
 11
22.793
 21
10.1481
  0
LINE
  8
0
 10
22.793
 20
10.1481
 11
23.7289
 21
7.70997
  0
LINE
  8
0
 10
23.7289
 20
7.70997
 11
24.4048
 21
5.1874
  0
LINE
  8
0
 10
24.4048
 20
5.1874
 11
24.8133
 21
2.60798
  0
LINE
  8
0
 10
24.8133
 20
2.60798
 11
24.95
 21
-1.59761e-14
  0
LINE
  8
0
 10
24.95
 20
-1.59761e-14
 11
24.8133
 21
-2.60798
  0
LINE
  8
0
 10
24.8133
 20
-2.60798
 11
24.4048
 21
-5.1874
  0
LINE
  8
0
 10
24.4048
 20
-5.1874
 11
23.7289
 21
-7.70997
  0
LINE
  8
0
 10
23.7289
 20
-7.70997
 11
22.793
 21
-10.1481
  0
LINE
  8
0
 10
22.793
 20
-10.1481
 11
21.6073
 21
-12.475
  0
LINE
  8
0
 10
21.6073
 20
-12.475
 11
20.185
 21
-14.6652
  0
LINE
  8
0
 10
20.185
 20
-14.6652
 11
18.5415
 21
-16.6948
  0
LINE
  8
0
 10
18.5415
 20
-16.6948
 11
16.6948
 21
-18.5415
  0
LINE
  8
0
 10
16.6948
 20
-18.5415
 11
14.6652
 21
-20.185
  0
LINE
  8
0
 10
14.6652
 20
-20.185
 11
12.475
 21
-21.6073
  0
LINE
  8
0
 10
12.475
 20
-21.6073
 11
10.1481
 21
-22.793
  0
LINE
  8
0
 10
10.1481
 20
-22.793
 11
7.70997
 21
-23.7289
  0
LINE
  8
0
 10
7.70997
 20
-23.7289
 11
5.1874
 21
-24.4048
  0
LINE
  8
0
 10
5.1874
 20
-24.4048
 11
2.60798
 21
-24.8133
  0
LINE
  8
0
 10
2.60798
 20
-24.8133
 11
-5.54001e-15
 21
-24.95
  0
LINE
  8
0
 10
-5.54001e-15
 20
-24.95
 11
-2.60798
 21
-24.8133
  0
LINE
  8
0
 10
-2.60798
 20
-24.8133
 11
-5.1874
 21
-24.4048
  0
LINE
  8
0
 10
-5.1874
 20
-24.4048
 11
-7.70997
 21
-23.7289
  0
LINE
  8
0
 10
-7.70997
 20
-23.7289
 11
-10.1481
 21
-22.793
  0
LINE
  8
0
 10
-10.1481
 20
-22.793
 11
-12.475
 21
-21.6073
  0
LINE
  8
0
 10
-12.475
 20
-21.6073
 11
-14.6652
 21
-20.185
  0
LINE
  8
0
 10
-14.6652
 20
-20.185
 11
-16.6948
 21
-18.5415
  0
LINE
  8
0
 10
-16.6948
 20
-18.5415
 11
-18.5415
 21
-16.6948
  0
LINE
  8
0
 10
-18.5415
 20
-16.6948
 11
-20.185
 21
-14.6652
  0
LINE
  8
0
 10
-20.185
 20
-14.6652
 11
-21.6073
 21
-12.475
  0
LINE
  8
0
 10
-21.6073
 20
-12.475
 11
-22.793
 21
-10.1481
  0
LINE
  8
0
 10
-22.793
 20
-10.1481
 11
-23.7289
 21
-7.70997
  0
LINE
  8
0
 10
-23.7289
 20
-7.70997
 11
-24.4048
 21
-5.1874
  0
LINE
  8
0
 10
-24.4048
 20
-5.1874
 11
-24.8133
 21
-2.60798
  0
LINE
  8
0
 10
-24.8133
 20
-2.60798
 11
-24.95
 21
-4.89608e-15
  0
LINE
  8
0
 10
32.9
 20
-19
 11
32.9096
 21
-18.8171
  0
LINE
  8
0
 10
32.9096
 20
-18.8171
 11
32.9382
 21
-18.6362
  0
LINE
  8
0
 10
32.9382
 20
-18.6362
 11
32.9857
 21
-18.4592
  0
LINE
  8
0
 10
32.9857
 20
-18.4592
 11
33.0513
 21
-18.2882
  0
LINE
  8
0
 10
33.0513
 20
-18.2882
 11
33.1345
 21
-18.125
  0
LINE
  8
0
 10
33.1345
 20
-18.125
 11
33.2342
 21
-17.9714
  0
LINE
  8
0
 10
33.2342
 20
-17.9714
 11
33.3495
 21
-17.829
  0
LINE
  8
0
 10
33.3495
 20
-17.829
 11
33.479
 21
-17.6995
  0
LINE
  8
0
 10
33.479
 20
-17.6995
 11
33.6214
 21
-17.5842
  0
LINE
  8
0
 10
33.6214
 20
-17.5842
 11
33.775
 21
-17.4845
  0
LINE
  8
0
 10
33.775
 20
-17.4845
 11
33.9382
 21
-17.4013
  0
LINE
  8
0
 10
33.9382
 20
-17.4013
 11
34.1092
 21
-17.3357
  0
LINE
  8
0
 10
34.1092
 20
-17.3357
 11
34.2862
 21
-17.2882
  0
LINE
  8
0
 10
34.2862
 20
-17.2882
 11
34.4671
 21
-17.2596
  0
LINE
  8
0
 10
34.4671
 20
-17.2596
 11
34.65
 21
-17.25
  0
LINE
  8
0
 10
34.65
 20
-17.25
 11
34.8329
 21
-17.2596
  0
LINE
  8
0
 10
34.8329
 20
-17.2596
 11
35.0138
 21
-17.2882
  0
LINE
  8
0
 10
35.0138
 20
-17.2882
 11
35.1908
 21
-17.3357
  0
LINE
  8
0
 10
35.1908
 20
-17.3357
 11
35.3618
 21
-17.4013
  0
LINE
  8
0
 10
35.3618
 20
-17.4013
 11
35.525
 21
-17.4845
  0
LINE
  8
0
 10
35.525
 20
-17.4845
 11
35.6786
 21
-17.5842
  0
LINE
  8
0
 10
35.6786
 20
-17.5842
 11
35.821
 21
-17.6995
  0
LINE
  8
0
 10
35.821
 20
-17.6995
 11
35.9505
 21
-17.829
  0
LINE
  8
0
 10
35.9505
 20
-17.829
 11
36.0658
 21
-17.9714
  0
LINE
  8
0
 10
36.0658
 20
-17.9714
 11
36.1157
 21
-18.0482
  0
LINE
  8
0
 10
36.1157
 20
-18.0482
 11
36.1655
 21
-18.125
  0
LINE
  8
0
 10
36.1655
 20
-18.125
 11
36.2071
 21
-18.2066
  0
LINE
  8
0
 10
36.2071
 20
-18.2066
 11
36.2487
 21
-18.2882
  0
LINE
  8
0
 10
36.2487
 20
-18.2882
 11
36.3143
 21
-18.4592
  0
LINE
  8
0
 10
36.3143
 20
-18.4592
 11
36.3618
 21
-18.6362
  0
LINE
  8
0
 10
36.3618
 20
-18.6362
 11
36.3904
 21
-18.8171
  0
LINE
  8
0
 10
36.3904
 20
-18.8171
 11
36.4
 21
-19
  0
LINE
  8
0
 10
36.4
 20
-19
 11
36.3904
 21
-19.1829
  0
LINE
  8
0
 10
36.3904
 20
-19.1829
 11
36.3618
 21
-19.3638
  0
LINE
  8
0
 10
36.3618
 20
-19.3638
 11
36.3143
 21
-19.5408
  0
LINE
  8
0
 10
36.3143
 20
-19.5408
 11
36.2487
 21
-19.7118
  0
LINE
  8
0
 10
36.2487
 20
-19.7118
 11
36.1655
 21
-19.875
  0
LINE
  8
0
 10
36.1655
 20
-19.875
 11
36.0658
 21
-20.0286
  0
LINE
  8
0
 10
36.0658
 20
-20.0286
 11
35.9505
 21
-20.171
  0
LINE
  8
0
 10
35.9505
 20
-20.171
 11
35.821
 21
-20.3005
  0
LINE
  8
0
 10
35.821
 20
-20.3005
 11
35.6786
 21
-20.4158
  0
LINE
  8
0
 10
35.6786
 20
-20.4158
 11
35.525
 21
-20.5155
  0
LINE
  8
0
 10
35.525
 20
-20.5155
 11
35.3618
 21
-20.5987
  0
LINE
  8
0
 10
35.3618
 20
-20.5987
 11
35.1908
 21
-20.6643
  0
LINE
  8
0
 10
35.1908
 20
-20.6643
 11
35.0138
 21
-20.7118
  0
LINE
  8
0
 10
35.0138
 20
-20.7118
 11
34.8329
 21
-20.7404
  0
LINE
  8
0
 10
34.8329
 20
-20.7404
 11
34.65
 21
-20.75
  0
LINE
  8
0
 10
34.65
 20
-20.75
 11
34.4671
 21
-20.7404
  0
LINE
  8
0
 10
34.4671
 20
-20.7404
 11
34.2862
 21
-20.7118
  0
LINE
  8
0
 10
34.2862
 20
-20.7118
 11
34.1092
 21
-20.6643
  0
LINE
  8
0
 10
34.1092
 20
-20.6643
 11
33.9382
 21
-20.5987
  0
LINE
  8
0
 10
33.9382
 20
-20.5987
 11
33.775
 21
-20.5155
  0
LINE
  8
0
 10
33.775
 20
-20.5155
 11
33.6214
 21
-20.4158
  0
LINE
  8
0
 10
33.6214
 20
-20.4158
 11
33.479
 21
-20.3005
  0
LINE
  8
0
 10
33.479
 20
-20.3005
 11
33.3495
 21
-20.171
  0
LINE
  8
0
 10
33.3495
 20
-20.171
 11
33.2342
 21
-20.0286
  0
LINE
  8
0
 10
33.2342
 20
-20.0286
 11
33.1345
 21
-19.875
  0
LINE
  8
0
 10
33.1345
 20
-19.875
 11
33.0513
 21
-19.7118
  0
LINE
  8
0
 10
33.0513
 20
-19.7118
 11
32.9857
 21
-19.5408
  0
LINE
  8
0
 10
32.9857
 20
-19.5408
 11
32.9382
 21
-19.3638
  0
LINE
  8
0
 10
32.9382
 20
-19.3638
 11
32.9096
 21
-19.1829
  0
LINE
  8
0
 10
32.9096
 20
-19.1829
 11
32.9
 21
-19
  0
LINE
  8
0
 10
32.9
 20
19
 11
32.9096
 21
19.1829
  0
LINE
  8
0
 10
32.9096
 20
19.1829
 11
32.9382
 21
19.3638
  0
LINE
  8
0
 10
32.9382
 20
19.3638
 11
32.9857
 21
19.5408
  0
LINE
  8
0
 10
32.9857
 20
19.5408
 11
33.0513
 21
19.7118
  0
LINE
  8
0
 10
33.0513
 20
19.7118
 11
33.1345
 21
19.875
  0
LINE
  8
0
 10
33.1345
 20
19.875
 11
33.2342
 21
20.0286
  0
LINE
  8
0
 10
33.2342
 20
20.0286
 11
33.3495
 21
20.171
  0
LINE
  8
0
 10
33.3495
 20
20.171
 11
33.479
 21
20.3005
  0
LINE
  8
0
 10
33.479
 20
20.3005
 11
33.6214
 21
20.4158
  0
LINE
  8
0
 10
33.6214
 20
20.4158
 11
33.775
 21
20.5155
  0
LINE
  8
0
 10
33.775
 20
20.5155
 11
33.9382
 21
20.5987
  0
LINE
  8
0
 10
33.9382
 20
20.5987
 11
34.1092
 21
20.6643
  0
LINE
  8
0
 10
34.1092
 20
20.6643
 11
34.2862
 21
20.7118
  0
LINE
  8
0
 10
34.2862
 20
20.7118
 11
34.4671
 21
20.7404
  0
LINE
  8
0
 10
34.4671
 20
20.7404
 11
34.65
 21
20.75
  0
LINE
  8
0
 10
34.65
 20
20.75
 11
34.8329
 21
20.7404
  0
LINE
  8
0
 10
34.8329
 20
20.7404
 11
35.0138
 21
20.7118
  0
LINE
  8
0
 10
35.0138
 20
20.7118
 11
35.1908
 21
20.6643
  0
LINE
  8
0
 10
35.1908
 20
20.6643
 11
35.3618
 21
20.5987
  0
LINE
  8
0
 10
35.3618
 20
20.5987
 11
35.525
 21
20.5155
  0
LINE
  8
0
 10
35.525
 20
20.5155
 11
35.6786
 21
20.4158
  0
LINE
  8
0
 10
35.6786
 20
20.4158
 11
35.821
 21
20.3005
  0
LINE
  8
0
 10
35.821
 20
20.3005
 11
35.9505
 21
20.171
  0
LINE
  8
0
 10
35.9505
 20
20.171
 11
36.0658
 21
20.0286
  0
LINE
  8
0
 10
36.0658
 20
20.0286
 11
36.1655
 21
19.875
  0
LINE
  8
0
 10
36.1655
 20
19.875
 11
36.2487
 21
19.7118
  0
LINE
  8
0
 10
36.2487
 20
19.7118
 11
36.3143
 21
19.5408
  0
LINE
  8
0
 10
36.3143
 20
19.5408
 11
36.3618
 21
19.3638
  0
LINE
  8
0
 10
36.3618
 20
19.3638
 11
36.3904
 21
19.1829
  0
LINE
  8
0
 10
36.3904
 20
19.1829
 11
36.4
 21
19
  0
LINE
  8
0
 10
36.4
 20
19
 11
36.3904
 21
18.8171
  0
LINE
  8
0
 10
36.3904
 20
18.8171
 11
36.3618
 21
18.6362
  0
LINE
  8
0
 10
36.3618
 20
18.6362
 11
36.3143
 21
18.4592
  0
LINE
  8
0
 10
36.3143
 20
18.4592
 11
36.2487
 21
18.2882
  0
LINE
  8
0
 10
36.2487
 20
18.2882
 11
36.1655
 21
18.125
  0
LINE
  8
0
 10
36.1655
 20
18.125
 11
36.0658
 21
17.9714
  0
LINE
  8
0
 10
36.0658
 20
17.9714
 11
35.9505
 21
17.829
  0
LINE
  8
0
 10
35.9505
 20
17.829
 11
35.821
 21
17.6995
  0
LINE
  8
0
 10
35.821
 20
17.6995
 11
35.6786
 21
17.5842
  0
LINE
  8
0
 10
35.6786
 20
17.5842
 11
35.525
 21
17.4845
  0
LINE
  8
0
 10
35.525
 20
17.4845
 11
35.3618
 21
17.4013
  0
LINE
  8
0
 10
35.3618
 20
17.4013
 11
35.1908
 21
17.3357
  0
LINE
  8
0
 10
35.1908
 20
17.3357
 11
35.0138
 21
17.2882
  0
LINE
  8
0
 10
35.0138
 20
17.2882
 11
34.8329
 21
17.2596
  0
LINE
  8
0
 10
34.8329
 20
17.2596
 11
34.65
 21
17.25
  0
LINE
  8
0
 10
34.65
 20
17.25
 11
34.4671
 21
17.2596
  0
LINE
  8
0
 10
34.4671
 20
17.2596
 11
34.2862
 21
17.2882
  0
LINE
  8
0
 10
34.2862
 20
17.2882
 11
34.1092
 21
17.3357
  0
LINE
  8
0
 10
34.1092
 20
17.3357
 11
33.9382
 21
17.4013
  0
LINE
  8
0
 10
33.9382
 20
17.4013
 11
33.775
 21
17.4845
  0
LINE
  8
0
 10
33.775
 20
17.4845
 11
33.6214
 21
17.5842
  0
LINE
  8
0
 10
33.6214
 20
17.5842
 11
33.479
 21
17.6995
  0
LINE
  8
0
 10
33.479
 20
17.6995
 11
33.3495
 21
17.829
  0
LINE
  8
0
 10
33.3495
 20
17.829
 11
33.2342
 21
17.9714
  0
LINE
  8
0
 10
33.2342
 20
17.9714
 11
33.1345
 21
18.125
  0
LINE
  8
0
 10
33.1345
 20
18.125
 11
33.0513
 21
18.2882
  0
LINE
  8
0
 10
33.0513
 20
18.2882
 11
32.9857
 21
18.4592
  0
LINE
  8
0
 10
32.9857
 20
18.4592
 11
32.9382
 21
18.6362
  0
LINE
  8
0
 10
32.9382
 20
18.6362
 11
32.9096
 21
18.8171
  0
LINE
  8
0
 10
32.9096
 20
18.8171
 11
32.9
 21
19
  0
ENDSEC
  0
SECTION
  2
OBJECTS
  0
DICTIONARY
  0
ENDSEC
  0
EOF
