<?xml version="1.0" encoding="UTF-8" standalone="no"?>
<svg
   xmlns:dc="http://purl.org/dc/elements/1.1/"
   xmlns:cc="http://creativecommons.org/ns#"
   xmlns:rdf="http://www.w3.org/1999/02/22-rdf-syntax-ns#"
   xmlns:svg="http://www.w3.org/2000/svg"
   xmlns="http://www.w3.org/2000/svg"
   xmlns:sodipodi="http://sodipodi.sourceforge.net/DTD/sodipodi-0.dtd"
   xmlns:inkscape="http://www.inkscape.org/namespaces/inkscape"
   width="136mm"
   height="70mm"
   viewBox="-95 -35 136 70"
   version="1.1"
   id="svg3400"
   sodipodi:docname="face_avant.svg"
   inkscape:version="0.92.2 2405546, 2018-03-11">
  <metadata
     id="metadata3406">
    <rdf:RDF>
      <cc:Work
         rdf:about="">
        <dc:format>image/svg+xml</dc:format>
        <dc:type
           rdf:resource="http://purl.org/dc/dcmitype/StillImage" />
        <dc:title>OpenSCAD Model</dc:title>
      </cc:Work>
    </rdf:RDF>
  </metadata>
  <defs
     id="defs3404" />
  <sodipodi:namedview
     pagecolor="#ffffff"
     bordercolor="#666666"
     borderopacity="1"
     objecttolerance="10"
     gridtolerance="10"
     guidetolerance="10"
     inkscape:pageopacity="0"
     inkscape:pageshadow="2"
     inkscape:window-width="1276"
     inkscape:window-height="976"
     id="namedview3402"
     showgrid="false"
     inkscape:zoom="1.6819305"
     inkscape:cx="199.02944"
     inkscape:cy="113.94449"
     inkscape:window-x="1440"
     inkscape:window-y="22"
     inkscape:window-maximized="0"
     inkscape:current-layer="svg3400" />
  <title
     id="title3396">OpenSCAD Model</title>
  <path
     d=" M -94.7,34.5 L 40,34.5 L 40,-34.5 L -94.7,-34.5 z M -91.1,19 L -91.0904,18.8171 L -91.0618,18.6362 L -91.0143,18.4592 L -90.9487,18.2882 L -90.8655,18.125  L -90.7658,17.9714 L -90.6505,17.829 L -90.521,17.6995 L -90.3786,17.5842 L -90.225,17.4845 L -90.0618,17.4013  L -89.8908,17.3357 L -89.7138,17.2882 L -89.5329,17.2596 L -89.35,17.25 L -89.1671,17.2596 L -88.9862,17.2882  L -88.8092,17.3357 L -88.6382,17.4013 L -88.475,17.4845 L -88.3214,17.5842 L -88.179,17.6995 L -88.0495,17.829  L -87.9342,17.9714 L -87.8843,18.0482 L -87.8345,18.125 L -87.7929,18.2066 L -87.7513,18.2882 L -87.6857,18.4592  L -87.6382,18.6362 L -87.6096,18.8171 L -87.6,19 L -87.6096,19.1829 L -87.6382,19.3638 L -87.6857,19.5408  L -87.7513,19.7118 L -87.8345,19.875 L -87.9342,20.0286 L -88.0495,20.171 L -88.179,20.3005 L -88.3214,20.4158  L -88.475,20.5155 L -88.6382,20.5987 L -88.8092,20.6643 L -88.9862,20.7118 L -89.1671,20.7404 L -89.35,20.75  L -89.5329,20.7404 L -89.7138,20.7118 L -89.8908,20.6643 L -90.0618,20.5987 L -90.225,20.5155 L -90.3786,20.4158  L -90.521,20.3005 L -90.6505,20.171 L -90.7658,20.0286 L -90.8655,19.875 L -90.9487,19.7118 L -91.0143,19.5408  L -91.0618,19.3638 L -91.0904,19.1829 z M -91.1,-19 L -91.0904,-19.1829 L -91.0618,-19.3638 L -91.0143,-19.5408 L -90.9487,-19.7118 L -90.8655,-19.875  L -90.7658,-20.0286 L -90.6505,-20.171 L -90.521,-20.3005 L -90.3786,-20.4158 L -90.225,-20.5155 L -90.0618,-20.5987  L -89.8908,-20.6643 L -89.7138,-20.7118 L -89.5329,-20.7404 L -89.35,-20.75 L -89.1671,-20.7404 L -88.9862,-20.7118  L -88.8092,-20.6643 L -88.6382,-20.5987 L -88.475,-20.5155 L -88.3214,-20.4158 L -88.179,-20.3005 L -88.0495,-20.171  L -87.9342,-20.0286 L -87.8345,-19.875 L -87.7513,-19.7118 L -87.6857,-19.5408 L -87.6382,-19.3638 L -87.6096,-19.1829  L -87.6,-19 L -87.6096,-18.8171 L -87.6382,-18.6362 L -87.6857,-18.4592 L -87.7513,-18.2882 L -87.8345,-18.125  L -87.9342,-17.9714 L -88.0495,-17.829 L -88.179,-17.6995 L -88.3214,-17.5842 L -88.475,-17.4845 L -88.6382,-17.4013  L -88.8092,-17.3357 L -88.9862,-17.2882 L -89.1671,-17.2596 L -89.35,-17.25 L -89.5329,-17.2596 L -89.7138,-17.2882  L -89.8908,-17.3357 L -90.0618,-17.4013 L -90.225,-17.4845 L -90.3786,-17.5842 L -90.521,-17.6995 L -90.6505,-17.829  L -90.7658,-17.9714 L -90.8655,-18.125 L -90.9487,-18.2882 L -91.0143,-18.4592 L -91.0618,-18.6362 L -91.0904,-18.8171  z M -24.95,4.89608e-15 L -24.8133,-2.60798 L -24.4048,-5.1874 L -23.7289,-7.70997 L -22.793,-10.1481 L -21.6073,-12.475  L -20.185,-14.6652 L -18.5415,-16.6948 L -16.6948,-18.5415 L -14.6652,-20.185 L -12.475,-21.6073 L -10.1481,-22.793  L -7.70997,-23.7289 L -5.1874,-24.4048 L -2.60798,-24.8133 L 5.54001e-15,-24.95 L 2.60798,-24.8133 L 5.1874,-24.4048  L 7.70997,-23.7289 L 10.1481,-22.793 L 12.475,-21.6073 L 14.6652,-20.185 L 16.6948,-18.5415 L 18.5415,-16.6948  L 20.185,-14.6652 L 21.6073,-12.475 L 22.793,-10.1481 L 23.7289,-7.70997 L 24.4048,-5.1874 L 24.8133,-2.60798  L 24.95,1.59761e-14 L 24.8133,2.60798 L 24.4048,5.1874 L 23.7289,7.70997 L 22.793,10.1481 L 21.6073,12.475  L 20.185,14.6652 L 18.5415,16.6948 L 16.6948,18.5415 L 14.6652,20.185 L 12.475,21.6073 L 10.1481,22.793  L 7.70997,23.7289 L 5.1874,24.4048 L 2.60798,24.8133 L -5.54001e-15,24.95 L -2.60798,24.8133 L -5.1874,24.4048  L -7.70997,23.7289 L -10.1481,22.793 L -12.475,21.6073 L -14.6652,20.185 L -16.6948,18.5415 L -18.5415,16.6948  L -20.185,14.6652 L -21.6073,12.475 L -22.793,10.1481 L -23.7289,7.70997 L -24.4048,5.1874 L -24.8133,2.60798  z M 32.9,19 L 32.9096,18.8171 L 32.9382,18.6362 L 32.9857,18.4592 L 33.0513,18.2882 L 33.1345,18.125  L 33.2342,17.9714 L 33.3495,17.829 L 33.479,17.6995 L 33.6214,17.5842 L 33.775,17.4845 L 33.9382,17.4013  L 34.1092,17.3357 L 34.2862,17.2882 L 34.4671,17.2596 L 34.65,17.25 L 34.8329,17.2596 L 35.0138,17.2882  L 35.1908,17.3357 L 35.3618,17.4013 L 35.525,17.4845 L 35.6786,17.5842 L 35.821,17.6995 L 35.9505,17.829  L 36.0658,17.9714 L 36.1157,18.0482 L 36.1655,18.125 L 36.2071,18.2066 L 36.2487,18.2882 L 36.3143,18.4592  L 36.3618,18.6362 L 36.3904,18.8171 L 36.4,19 L 36.3904,19.1829 L 36.3618,19.3638 L 36.3143,19.5408  L 36.2487,19.7118 L 36.1655,19.875 L 36.0658,20.0286 L 35.9505,20.171 L 35.821,20.3005 L 35.6786,20.4158  L 35.525,20.5155 L 35.3618,20.5987 L 35.1908,20.6643 L 35.0138,20.7118 L 34.8329,20.7404 L 34.65,20.75  L 34.4671,20.7404 L 34.2862,20.7118 L 34.1092,20.6643 L 33.9382,20.5987 L 33.775,20.5155 L 33.6214,20.4158  L 33.479,20.3005 L 33.3495,20.171 L 33.2342,20.0286 L 33.1345,19.875 L 33.0513,19.7118 L 32.9857,19.5408  L 32.9382,19.3638 L 32.9096,19.1829 z M 32.9,-19 L 32.9096,-19.1829 L 32.9382,-19.3638 L 32.9857,-19.5408 L 33.0513,-19.7118 L 33.1345,-19.875  L 33.2342,-20.0286 L 33.3495,-20.171 L 33.479,-20.3005 L 33.6214,-20.4158 L 33.775,-20.5155 L 33.9382,-20.5987  L 34.1092,-20.6643 L 34.2862,-20.7118 L 34.4671,-20.7404 L 34.65,-20.75 L 34.8329,-20.7404 L 35.0138,-20.7118  L 35.1908,-20.6643 L 35.3618,-20.5987 L 35.525,-20.5155 L 35.6786,-20.4158 L 35.821,-20.3005 L 35.9505,-20.171  L 36.0658,-20.0286 L 36.1655,-19.875 L 36.2487,-19.7118 L 36.3143,-19.5408 L 36.3618,-19.3638 L 36.3904,-19.1829  L 36.4,-19 L 36.3904,-18.8171 L 36.3618,-18.6362 L 36.3143,-18.4592 L 36.2487,-18.2882 L 36.1655,-18.125  L 36.0658,-17.9714 L 35.9505,-17.829 L 35.821,-17.6995 L 35.6786,-17.5842 L 35.525,-17.4845 L 35.3618,-17.4013  L 35.1908,-17.3357 L 35.0138,-17.2882 L 34.8329,-17.2596 L 34.65,-17.25 L 34.4671,-17.2596 L 34.2862,-17.2882  L 34.1092,-17.3357 L 33.9382,-17.4013 L 33.775,-17.4845 L 33.6214,-17.5842 L 33.479,-17.6995 L 33.3495,-17.829  L 33.2342,-17.9714 L 33.1345,-18.125 L 33.0513,-18.2882 L 32.9857,-18.4592 L 32.9382,-18.6362 L 32.9096,-18.8171  z "
     stroke="black"
     fill="lightgray"
     stroke-width="0.5"
     id="path3398"
     style="fill:none;stroke:#ff0000" />
</svg>
