<?xml version="1.0" encoding="UTF-8" standalone="no"?>
<!-- Created with Inkscape (http://www.inkscape.org/) -->

<svg
   xmlns:dc="http://purl.org/dc/elements/1.1/"
   xmlns:cc="http://creativecommons.org/ns#"
   xmlns:rdf="http://www.w3.org/1999/02/22-rdf-syntax-ns#"
   xmlns:svg="http://www.w3.org/2000/svg"
   xmlns="http://www.w3.org/2000/svg"
   xmlns:sodipodi="http://sodipodi.sourceforge.net/DTD/sodipodi-0.dtd"
   xmlns:inkscape="http://www.inkscape.org/namespaces/inkscape"
   width="272.35367mm"
   height="205.32985mm"
   viewBox="0 0 272.35367 205.32985"
   version="1.1"
   id="svg9603"
   inkscape:version="0.92.2 2405546, 2018-03-11"
   sodipodi:docname="plan1.svg">
  <defs
     id="defs9597" />
  <sodipodi:namedview
     id="base"
     pagecolor="#ffffff"
     bordercolor="#666666"
     borderopacity="1.0"
     inkscape:pageopacity="0.0"
     inkscape:pageshadow="2"
     inkscape:zoom="0.49497475"
     inkscape:cx="-40.250748"
     inkscape:cy="405.69625"
     inkscape:document-units="mm"
     inkscape:current-layer="layer1"
     showgrid="false"
     fit-margin-top="0"
     fit-margin-left="0"
     fit-margin-right="0"
     fit-margin-bottom="0"
     inkscape:window-width="1276"
     inkscape:window-height="976"
     inkscape:window-x="1440"
     inkscape:window-y="22"
     inkscape:window-maximized="0" />
  <metadata
     id="metadata9600">
    <rdf:RDF>
      <cc:Work
         rdf:about="">
        <dc:format>image/svg+xml</dc:format>
        <dc:type
           rdf:resource="http://purl.org/dc/dcmitype/StillImage" />
        <dc:title></dc:title>
      </cc:Work>
    </rdf:RDF>
  </metadata>
  <g
     inkscape:label="Calque 1"
     inkscape:groupmode="layer"
     id="layer1"
     transform="translate(20.812453,-31.388648)">
    <g
       id="g4408"
       transform="rotate(-90,138.05302,64.033181)"
       style="stroke-width:0.26458332;stroke-miterlimit:4;stroke-dasharray:none">
      <path
         id="path4372"
         d="m -34.5,40 h 69 V -94.7 h -69 z"
         style="fill:none;stroke:#ff0000;stroke-width:0.26458332;stroke-miterlimit:4;stroke-dasharray:none"
         inkscape:connector-curvature="0" />
      <path
         id="path4370"
         d="m -24.95,0 0.1367,-2.60798 0.4085,-2.57942 0.6759,-2.52257 0.9359,-2.43813 1.1857,-2.3269 1.4223,-2.1902 1.6435,-2.0296 1.8467,-1.8467 2.0296,-1.6435 2.1902,-1.4223 2.3269,-1.1857 2.43813,-0.9359 2.52257,-0.6759 2.57942,-0.4085 L 0,-24.95 l 2.60798,0.1367 2.57942,0.4085 2.52257,0.6759 2.43813,0.9359 2.3269,1.1857 2.1902,1.4223 2.0296,1.6435 1.8467,1.8467 1.6435,2.0296 1.4223,2.1902 1.1857,2.3269 0.9359,2.43813 0.6759,2.52257 0.4085,2.57942 L 24.95,0 24.8133,2.60798 24.4048,5.1874 23.7289,7.70997 22.793,10.1481 21.6073,12.475 20.185,14.6652 18.5415,16.6948 16.6948,18.5415 14.6652,20.185 12.475,21.6073 10.1481,22.793 7.70997,23.7289 5.1874,24.4048 2.60798,24.8133 0,24.95 -2.60798,24.8133 -5.1874,24.4048 -7.70997,23.7289 -10.1481,22.793 -12.475,21.6073 -14.6652,20.185 -16.6948,18.5415 -18.5415,16.6948 -20.185,14.6652 -21.6073,12.475 -22.793,10.1481 -23.7289,7.70997 -24.4048,5.1874 -24.8133,2.60798 Z"
         style="fill:none;stroke:#ff0000;stroke-width:0.26458332;stroke-miterlimit:4;stroke-dasharray:none"
         inkscape:connector-curvature="0" />
      <path
         id="path4368"
         d="m -20.75,34.65 0.0096,-0.1829 0.0286,-0.1809 0.0475,-0.177 0.0656,-0.171 0.0832,-0.1632 0.0997,-0.1536 0.1153,-0.1424 0.1295,-0.1295 0.1424,-0.1153 0.1536,-0.0997 0.1632,-0.0832 0.171,-0.0656 0.177,-0.0475 0.1809,-0.0286 L -19,32.9 l 0.1829,0.0096 0.1809,0.0286 0.177,0.0475 0.171,0.0656 0.1632,0.0832 0.1536,0.0997 0.1424,0.1153 0.1295,0.1295 0.1153,0.1424 0.0997,0.1536 0.0832,0.1632 0.0656,0.171 0.0475,0.177 0.0286,0.1809 0.0096,0.1829 -0.0096,0.1829 -0.0286,0.1809 -0.0475,0.177 -0.0656,0.171 -0.0832,0.1632 -0.0997,0.1536 -0.1153,0.1424 -0.1295,0.1295 -0.1424,0.1153 -0.0768,0.0499 -0.0768,0.0498 -0.0816,0.0416 -0.0816,0.0416 -0.171,0.0656 -0.177,0.0475 -0.1809,0.0286 L -19,36.4 l -0.1829,-0.0096 -0.1809,-0.0286 -0.177,-0.0475 -0.171,-0.0656 -0.1632,-0.0832 -0.1536,-0.0997 -0.1424,-0.1153 -0.1295,-0.1295 -0.1153,-0.1424 -0.0997,-0.1536 -0.0832,-0.1632 -0.0656,-0.171 -0.0475,-0.177 -0.0286,-0.1809 z"
         style="fill:none;stroke:#ff0000;stroke-width:0.26458332;stroke-miterlimit:4;stroke-dasharray:none"
         inkscape:connector-curvature="0" />
      <path
         id="path4366"
         d="m -20.75,-89.35 0.0096,-0.1829 0.0286,-0.1809 0.0475,-0.177 0.0656,-0.171 0.0832,-0.1632 0.0997,-0.1536 0.1153,-0.1424 0.1295,-0.1295 0.1424,-0.1153 0.1536,-0.0997 0.1632,-0.0832 0.171,-0.0656 0.177,-0.0475 0.1809,-0.0286 L -19,-91.1 l 0.1829,0.0096 0.1809,0.0286 0.177,0.0475 0.171,0.0656 0.1632,0.0832 0.1536,0.0997 0.1424,0.1153 0.1295,0.1295 0.1153,0.1424 0.0997,0.1536 0.0832,0.1632 0.0656,0.171 0.0475,0.177 0.0286,0.1809 0.0096,0.1829 -0.0096,0.1829 -0.0286,0.1809 -0.0475,0.177 -0.0656,0.171 -0.0832,0.1632 -0.0997,0.1536 -0.1153,0.1424 -0.1295,0.1295 -0.1424,0.1153 -0.0768,0.0499 -0.0768,0.0498 -0.0816,0.0416 -0.0816,0.0416 -0.171,0.0656 -0.177,0.0475 -0.1809,0.0286 L -19,-87.6 l -0.1829,-0.0096 -0.1809,-0.0286 -0.177,-0.0475 -0.171,-0.0656 -0.1632,-0.0832 -0.1536,-0.0997 -0.1424,-0.1153 -0.1295,-0.1295 -0.1153,-0.1424 -0.0997,-0.1536 -0.0832,-0.1632 -0.0656,-0.171 -0.0475,-0.177 -0.0286,-0.1809 z"
         style="fill:none;stroke:#ff0000;stroke-width:0.26458332;stroke-miterlimit:4;stroke-dasharray:none"
         inkscape:connector-curvature="0" />
      <path
         id="path4364"
         d="m 17.25,34.65 0.0096,-0.1829 0.0286,-0.1809 0.0475,-0.177 0.0656,-0.171 0.0832,-0.1632 0.0997,-0.1536 0.1153,-0.1424 0.1295,-0.1295 0.1424,-0.1153 0.1536,-0.0997 0.1632,-0.0832 0.171,-0.0656 0.177,-0.0475 0.1809,-0.0286 L 19,32.9 l 0.1829,0.0096 0.1809,0.0286 0.177,0.0475 0.171,0.0656 0.1632,0.0832 0.1536,0.0997 0.1424,0.1153 0.1295,0.1295 0.1153,0.1424 0.0997,0.1536 0.0832,0.1632 0.0656,0.171 0.0475,0.177 0.0286,0.1809 0.0096,0.1829 -0.0096,0.1829 -0.0286,0.1809 -0.0475,0.177 -0.0656,0.171 -0.0832,0.1632 -0.0997,0.1536 -0.1153,0.1424 -0.1295,0.1295 -0.1424,0.1153 -0.1536,0.0997 -0.1632,0.0832 -0.171,0.0656 -0.177,0.0475 -0.1809,0.0286 L 19,36.4 18.8171,36.3904 18.6362,36.3618 18.4592,36.3143 18.2882,36.2487 18.125,36.1655 17.9714,36.0658 17.829,35.9505 17.6995,35.821 17.5842,35.6786 17.4845,35.525 l -0.0832,-0.1632 -0.0656,-0.171 -0.0475,-0.177 -0.0286,-0.1809 z"
         style="fill:none;stroke:#ff0000;stroke-width:0.26458332;stroke-miterlimit:4;stroke-dasharray:none"
         inkscape:connector-curvature="0" />
      <path
         id="path4362"
         d="m 17.25,-89.35 0.0096,-0.1829 0.0286,-0.1809 0.0475,-0.177 0.0656,-0.171 0.0832,-0.1632 0.0997,-0.1536 0.1153,-0.1424 0.1295,-0.1295 0.1424,-0.1153 0.1536,-0.0997 0.1632,-0.0832 0.171,-0.0656 0.177,-0.0475 0.1809,-0.0286 L 19,-91.1 l 0.1829,0.0096 0.1809,0.0286 0.177,0.0475 0.171,0.0656 0.1632,0.0832 0.1536,0.0997 0.1424,0.1153 0.1295,0.1295 0.1153,0.1424 0.0997,0.1536 0.0832,0.1632 0.0656,0.171 0.0475,0.177 0.0286,0.1809 0.0096,0.1829 -0.0096,0.1829 -0.0286,0.1809 -0.0475,0.177 -0.0656,0.171 -0.0832,0.1632 -0.0997,0.1536 -0.1153,0.1424 -0.1295,0.1295 -0.1424,0.1153 -0.1536,0.0997 -0.1632,0.0832 -0.171,0.0656 -0.177,0.0475 -0.1809,0.0286 L 19,-87.6 l -0.1829,-0.0096 -0.1809,-0.0286 -0.177,-0.0475 -0.171,-0.0656 -0.1632,-0.0832 -0.1536,-0.0997 -0.1424,-0.1153 -0.1295,-0.1295 -0.1153,-0.1424 -0.0997,-0.1536 -0.0832,-0.1632 -0.0656,-0.171 -0.0475,-0.177 -0.0286,-0.1809 z"
         style="fill:none;stroke:#ff0000;stroke-width:0.26458332;stroke-miterlimit:4;stroke-dasharray:none"
         inkscape:connector-curvature="0" />
    </g>
    <g
       id="g4400"
       transform="rotate(-90,205.78216,-74.133116)"
       style="stroke-width:0.26458332;stroke-miterlimit:4;stroke-dasharray:none">
      <path
         id="path4360"
         d="m -34.5,-100 h 69 v -134.7 h -69 z"
         style="fill:none;stroke:#ff0000;stroke-width:0.26458332;stroke-miterlimit:4;stroke-dasharray:none"
         inkscape:connector-curvature="0" />
      <path
         id="path4358"
         d="m -20.75,-105.35 0.0096,-0.183 0.0286,-0.181 0.0475,-0.177 0.0656,-0.171 0.0832,-0.163 0.0997,-0.154 0.1153,-0.142 0.1295,-0.13 0.1424,-0.115 0.1536,-0.1 0.1632,-0.083 0.171,-0.065 0.177,-0.048 0.1809,-0.028 0.1829,-0.01 0.1829,0.01 0.1809,0.028 0.177,0.048 0.171,0.065 0.1632,0.083 0.1536,0.1 0.1424,0.115 0.1295,0.13 0.1153,0.142 0.0997,0.154 0.0832,0.163 0.0656,0.171 0.0475,0.177 0.0286,0.181 0.0096,0.183 -0.0096,0.183 -0.0286,0.181 -0.0475,0.177 -0.0656,0.171 -0.0832,0.163 -0.0997,0.154 -0.1153,0.142 -0.1295,0.13 -0.1424,0.115 -0.0768,0.05 -0.0768,0.05 -0.0816,0.041 -0.0816,0.042 -0.171,0.065 -0.177,0.048 -0.1809,0.028 -0.1829,0.01 -0.1829,-0.01 -0.1809,-0.028 -0.177,-0.048 -0.171,-0.065 -0.1632,-0.083 -0.1536,-0.1 -0.1424,-0.115 -0.1295,-0.13 -0.1153,-0.142 -0.0997,-0.154 -0.0832,-0.163 -0.0656,-0.171 -0.0475,-0.177 -0.0286,-0.181 z"
         style="fill:none;stroke:#ff0000;stroke-width:0.26458332;stroke-miterlimit:4;stroke-dasharray:none"
         inkscape:connector-curvature="0" />
      <path
         id="path4356"
         d="m -20.75,-229.35 0.0096,-0.183 0.0286,-0.181 0.0475,-0.177 0.0656,-0.171 0.0832,-0.163 0.0997,-0.154 0.1153,-0.142 0.1295,-0.13 0.1424,-0.115 0.1536,-0.1 0.1632,-0.083 0.171,-0.065 0.177,-0.048 0.1809,-0.028 0.1829,-0.01 0.1829,0.01 0.1809,0.028 0.177,0.048 0.171,0.065 0.1632,0.083 0.1536,0.1 0.1424,0.115 0.1295,0.13 0.1153,0.142 0.0997,0.154 0.0832,0.163 0.0656,0.171 0.0475,0.177 0.0286,0.181 0.0096,0.183 -0.0096,0.183 -0.0286,0.181 -0.0475,0.177 -0.0656,0.171 -0.0832,0.163 -0.0997,0.154 -0.1153,0.142 -0.1295,0.13 -0.1424,0.115 -0.0768,0.05 -0.0768,0.05 -0.0816,0.041 -0.0816,0.042 -0.171,0.065 -0.177,0.048 -0.1809,0.028 -0.1829,0.01 -0.1829,-0.01 -0.1809,-0.028 -0.177,-0.048 -0.171,-0.065 -0.1632,-0.083 -0.1536,-0.1 -0.1424,-0.115 -0.1295,-0.13 -0.1153,-0.142 -0.0997,-0.154 -0.0832,-0.163 -0.0656,-0.171 -0.0475,-0.177 -0.0286,-0.181 z"
         style="fill:none;stroke:#ff0000;stroke-width:0.26458332;stroke-miterlimit:4;stroke-dasharray:none"
         inkscape:connector-curvature="0" />
      <path
         id="path4354"
         d="m -6,-183 v -13 H 5 v 13 z"
         style="fill:none;stroke:#ff0000;stroke-width:0.26458332;stroke-miterlimit:4;stroke-dasharray:none"
         inkscape:connector-curvature="0" />
      <path
         id="path4352"
         d="m 17.25,-105.35 0.0096,-0.183 0.0286,-0.181 0.0475,-0.177 0.0656,-0.171 0.0832,-0.163 0.0997,-0.154 0.1153,-0.142 0.1295,-0.13 0.1424,-0.115 0.1536,-0.1 0.1632,-0.083 0.171,-0.065 0.177,-0.048 0.1809,-0.028 0.1829,-0.01 0.1829,0.01 0.1809,0.028 0.177,0.048 0.171,0.065 0.1632,0.083 0.1536,0.1 0.1424,0.115 0.1295,0.13 0.1153,0.142 0.0997,0.154 0.0832,0.163 0.0656,0.171 0.0475,0.177 0.0286,0.181 0.0096,0.183 -0.0096,0.183 -0.0286,0.181 -0.0475,0.177 -0.0656,0.171 -0.0832,0.163 -0.0997,0.154 -0.1153,0.142 -0.1295,0.13 -0.1424,0.115 -0.1536,0.1 -0.1632,0.083 -0.171,0.065 -0.177,0.048 -0.1809,0.028 -0.1829,0.01 -0.1829,-0.01 -0.1809,-0.028 -0.177,-0.048 -0.171,-0.065 -0.1632,-0.083 -0.1536,-0.1 -0.1424,-0.115 -0.1295,-0.13 -0.1153,-0.142 -0.0997,-0.154 -0.0832,-0.163 -0.0656,-0.171 -0.0475,-0.177 -0.0286,-0.181 z"
         style="fill:none;stroke:#ff0000;stroke-width:0.26458332;stroke-miterlimit:4;stroke-dasharray:none"
         inkscape:connector-curvature="0" />
      <path
         id="path4350"
         d="m 17.25,-229.35 0.0096,-0.183 0.0286,-0.181 0.0475,-0.177 0.0656,-0.171 0.0832,-0.163 0.0997,-0.154 0.1153,-0.142 0.1295,-0.13 0.1424,-0.115 0.1536,-0.1 0.1632,-0.083 0.171,-0.065 0.177,-0.048 0.1809,-0.028 0.1829,-0.01 0.1829,0.01 0.1809,0.028 0.177,0.048 0.171,0.065 0.1632,0.083 0.1536,0.1 0.1424,0.115 0.1295,0.13 0.1153,0.142 0.0997,0.154 0.0832,0.163 0.0656,0.171 0.0475,0.177 0.0286,0.181 0.0096,0.183 -0.0096,0.183 -0.0286,0.181 -0.0475,0.177 -0.0656,0.171 -0.0832,0.163 -0.0997,0.154 -0.1153,0.142 -0.1295,0.13 -0.1424,0.115 -0.1536,0.1 -0.1632,0.083 -0.171,0.065 -0.177,0.048 -0.1809,0.028 -0.1829,0.01 -0.1829,-0.01 -0.1809,-0.028 -0.177,-0.048 -0.171,-0.065 -0.1632,-0.083 -0.1536,-0.1 -0.1424,-0.115 -0.1295,-0.13 -0.1153,-0.142 -0.0997,-0.154 -0.0832,-0.163 -0.0656,-0.171 -0.0475,-0.177 -0.0286,-0.181 z"
         style="fill:none;stroke:#ff0000;stroke-width:0.26458332;stroke-miterlimit:4;stroke-dasharray:none"
         inkscape:connector-curvature="0" />
    </g>
    <g
       id="g4376"
       transform="translate(11.082546,332.62106)"
       style="stroke-width:0.26458332;stroke-miterlimit:4;stroke-dasharray:none">
      <path
         id="path4348"
         d="m -31.25,-238.90008 h 62.5 v -6.2 h -3 v -49.8 h 3 v -6.19996 h -62.5 v 6.19996 h 3 v 49.8 h -3 z"
         style="fill:none;stroke:#ff0000;stroke-width:0.26458332;stroke-miterlimit:4;stroke-dasharray:none"
         inkscape:connector-curvature="0"
         sodipodi:nodetypes="ccccccccccccc" />
      <path
         id="path4346"
         d="m -23.95,-270 0.1367,-2.608 0.4085,-2.579 0.6759,-2.523 0.9359,-2.438 1.1857,-2.327 1.4223,-2.19 1.6435,-2.03 1.8467,-1.846 2.0296,-1.644 2.1902,-1.422 2.32692,-1.186 2.43811,-0.936 2.52257,-0.676 2.57942,-0.408 L 1,-294.95 l 2.60798,0.137 2.57942,0.408 2.52257,0.676 2.43813,0.936 2.3269,1.186 2.1902,1.422 2.0296,1.644 1.8467,1.846 1.6435,2.03 1.4223,2.19 1.1857,2.327 0.9359,2.438 0.6759,2.523 0.4085,2.579 0.1367,2.608 -0.1367,2.608 -0.4085,2.579 -0.6759,2.523 -0.9359,2.438 -1.1857,2.327 -1.4223,2.19 -1.6435,2.03 -1.8467,1.846 -2.0296,1.644 -2.1902,1.422 -2.3269,1.186 -2.43813,0.936 -2.52257,0.676 -2.57942,0.408 L 1,-245.05 l -2.60798,-0.137 -2.57942,-0.408 -2.52257,-0.676 -2.43811,-0.936 -2.32692,-1.186 -2.1902,-1.422 -2.0296,-1.644 -1.8467,-1.846 -1.6435,-2.03 -1.4223,-2.19 -1.1857,-2.327 -0.9359,-2.438 -0.6759,-2.523 -0.4085,-2.579 z"
         style="fill:none;stroke:#ff0000;stroke-width:0.26458332;stroke-miterlimit:4;stroke-dasharray:none"
         inkscape:connector-curvature="0" />
    </g>
    <g
       id="g4380"
       transform="translate(7.7425247,332.62106)"
       style="stroke-width:0.26458332;stroke-miterlimit:4;stroke-dasharray:none">
      <path
         id="path4344"
         d="m 33.75,-250.90008 h 3 V -239 h 56.5 v -11.90008 h 3 v -6.2 h -3 v -25.8 h 3 v -6.2 h -3 V -301 h -56.5 v 11.89992 h -3 v 6.2 h 3 v 25.8 h -3 z"
         style="fill:none;stroke:#ff0000;stroke-width:0.26458332;stroke-miterlimit:4;stroke-dasharray:none"
         inkscape:connector-curvature="0"
         sodipodi:nodetypes="ccccccccccccccccccccc" />
      <path
         id="path4342"
         d="m 41.05,-270 0.1367,-2.608 0.4085,-2.579 0.6759,-2.523 0.9359,-2.438 1.1857,-2.327 1.4223,-2.19 1.6435,-2.03 1.8467,-1.846 2.0296,-1.644 2.1902,-1.422 2.3269,-1.186 2.4381,-0.936 2.5226,-0.676 2.5794,-0.408 2.608,-0.137 2.608,0.137 2.5794,0.408 2.5226,0.676 2.4381,0.936 2.3269,1.186 2.1902,1.422 2.0296,1.644 1.8467,1.846 1.6435,2.03 1.4223,2.19 1.1857,2.327 0.9359,2.438 0.6759,2.523 0.4085,2.579 0.1367,2.608 -0.1367,2.608 -0.4085,2.579 -0.6759,2.523 -0.9359,2.438 -1.1857,2.327 -1.4223,2.19 -1.6435,2.03 -1.8467,1.846 -2.0296,1.644 -2.1902,1.422 -2.3269,1.186 -2.4381,0.936 -2.5226,0.676 -2.5794,0.408 -2.608,0.137 -2.608,-0.137 -2.5794,-0.408 -2.5226,-0.676 -2.4381,-0.936 -2.3269,-1.186 -2.1902,-1.422 -2.0296,-1.644 -1.8467,-1.846 -1.6435,-2.03 -1.4223,-2.19 -1.1857,-2.327 -0.9359,-2.438 -0.6759,-2.523 -0.4085,-2.579 z"
         style="fill:none;stroke:#ff0000;stroke-width:0.26458332;stroke-miterlimit:4;stroke-dasharray:none"
         inkscape:connector-curvature="0" />
    </g>
    <g
       id="g4384"
       transform="translate(4.4024777,332.62106)"
       style="stroke-width:0.26458332;stroke-miterlimit:4;stroke-dasharray:none">
      <path
         id="path4236"
         d="m 98.75,-238.90008 h 62.5 v -6.2 h -3 v -49.8 h 3 v -6.20004 h -62.5 v 6.20004 h 3 v 49.8 h -3 z"
         style="fill:none;stroke:#ff0000;stroke-width:0.26458332;stroke-miterlimit:4;stroke-dasharray:none"
         inkscape:connector-curvature="0"
         sodipodi:nodetypes="ccccccccccccc" />
      <path
         id="path4234"
         d="m 106.05,-270 0.137,-2.608 0.408,-2.579 0.676,-2.523 0.936,-2.438 1.186,-2.327 1.422,-2.19 1.644,-2.03 1.846,-1.846 2.03,-1.644 2.19,-1.422 2.327,-1.186 2.438,-0.936 2.523,-0.676 2.579,-0.408 2.608,-0.137 2.608,0.137 2.579,0.408 2.523,0.676 2.438,0.936 2.327,1.186 2.19,1.422 2.03,1.644 1.846,1.846 1.644,2.03 1.422,2.19 1.186,2.327 0.936,2.438 0.676,2.523 0.408,2.579 0.137,2.608 -0.137,2.608 -0.408,2.579 -0.676,2.523 -0.936,2.438 -1.186,2.327 -1.422,2.19 -1.644,2.03 -1.846,1.846 -2.03,1.644 -2.19,1.422 -2.327,1.186 -2.438,0.936 -2.523,0.676 -2.579,0.408 -2.608,0.137 -2.608,-0.137 -2.579,-0.408 -2.523,-0.676 -2.438,-0.936 -2.327,-1.186 -2.19,-1.422 -2.03,-1.644 -1.846,-1.846 -1.644,-2.03 -1.422,-2.19 -1.186,-2.327 -0.936,-2.438 -0.676,-2.523 -0.408,-2.579 z"
         style="fill:none;stroke:#ff0000;stroke-width:0.26458332;stroke-miterlimit:4;stroke-dasharray:none"
         inkscape:connector-curvature="0" />
    </g>
    <g
       id="g4388"
       transform="translate(2.8609347,332.62106)"
       style="stroke-width:0.26458332;stroke-miterlimit:4;stroke-dasharray:none">
      <path
         id="path4232"
         d="m 163.75,-250.90008 h 3 V -239 h 56.5 v -11.90008 h 3 v -6.2 h -3 v -25.8 h 3 l -6.8e-4,-6.20004 h -3 L 223.25,-301 h -56.5 l -2.3e-4,11.89996 h -3 l 2.3e-4,6.19996 h 3 v 25.8 h -3 z"
         style="fill:none;stroke:#ff0000;stroke-width:0.26458332;stroke-miterlimit:4;stroke-dasharray:none"
         inkscape:connector-curvature="0"
         sodipodi:nodetypes="ccccccccccccccccccccc" />
      <path
         id="path4230"
         d="m 171.05,-270 0.137,-2.608 0.408,-2.579 0.676,-2.523 0.936,-2.438 1.186,-2.327 1.422,-2.19 1.644,-2.03 1.846,-1.846 2.03,-1.644 2.19,-1.422 2.327,-1.186 2.438,-0.936 2.523,-0.676 2.579,-0.408 2.608,-0.137 2.608,0.137 2.579,0.408 2.523,0.676 2.438,0.936 2.327,1.186 2.19,1.422 2.03,1.644 1.846,1.846 1.644,2.03 1.422,2.19 1.186,2.327 0.936,2.438 0.676,2.523 0.408,2.579 0.137,2.608 -0.137,2.608 -0.408,2.579 -0.676,2.523 -0.936,2.438 -1.186,2.327 -1.422,2.19 -1.644,2.03 -1.846,1.846 -2.03,1.644 -2.19,1.422 -2.327,1.186 -2.438,0.936 -2.523,0.676 -2.579,0.408 -2.608,0.137 -2.608,-0.137 -2.579,-0.408 -2.523,-0.676 -2.438,-0.936 -2.327,-1.186 -2.19,-1.422 -2.03,-1.644 -1.846,-1.846 -1.644,-2.03 -1.422,-2.19 -1.186,-2.327 -0.936,-2.438 -0.676,-2.523 -0.408,-2.579 z"
         style="fill:none;stroke:#ff0000;stroke-width:0.26458332;stroke-miterlimit:4;stroke-dasharray:none"
         inkscape:connector-curvature="0" />
    </g>
    <g
       id="g4413"
       transform="translate(-45.459972,275.85911)"
       style="stroke-width:0.26458332;stroke-miterlimit:4;stroke-dasharray:none">
      <path
         id="path4228"
         d="m 228.75,-133.90014 h 3 V -128 h 56.5 v -5.90014 h 3 v -6.2 h -3 v -25.8 h 3 v -6.2 h -3 V -178 h -56.5 v 5.89986 h -3 v 6.2 h 3 v 25.8 h -3 z"
         style="fill:none;stroke:#ff0000;stroke-width:0.26458332;stroke-miterlimit:4;stroke-dasharray:none"
         inkscape:connector-curvature="0"
         sodipodi:nodetypes="ccccccccccccccccccccc" />
      <path
         id="path4226"
         d="m 243,-155.5 v -3 h 6 v 3 z"
         style="fill:none;stroke:#ff0000;stroke-width:0.26458332;stroke-miterlimit:4;stroke-dasharray:none"
         inkscape:connector-curvature="0" />
      <path
         id="path4224"
         d="m 271,-155.5 v -3 h 6 v 3 z"
         style="fill:none;stroke:#ff0000;stroke-width:0.26458332;stroke-miterlimit:4;stroke-dasharray:none"
         inkscape:connector-curvature="0" />
    </g>
    <g
       id="g4392"
       transform="translate(-249.17437,396.67645)"
       style="stroke-width:0.26458332;stroke-miterlimit:4;stroke-dasharray:none">
      <path
         id="path4222"
         d="m 228.75,-238.90048 h 62.5 v -6.2 h -3 v -49.8 h 3 v -6.2 h -62.5 v 6.2 h 3 v 49.8 h -3 z"
         style="fill:none;stroke:#ff0000;stroke-width:0.26458332;stroke-miterlimit:4;stroke-dasharray:none"
         inkscape:connector-curvature="0"
         sodipodi:nodetypes="ccccccccccccc" />
      <path
         id="path4220"
         d="m 236.05,-270 0.137,-2.608 0.408,-2.579 0.676,-2.523 0.936,-2.438 1.186,-2.327 1.422,-2.19 1.644,-2.03 1.846,-1.846 2.03,-1.644 2.19,-1.422 2.327,-1.186 2.438,-0.936 2.523,-0.676 2.579,-0.408 2.608,-0.137 2.608,0.137 2.579,0.408 2.523,0.676 2.438,0.936 2.327,1.186 2.19,1.422 2.03,1.644 1.846,1.846 1.644,2.03 1.422,2.19 1.186,2.327 0.936,2.438 0.676,2.523 0.408,2.579 0.137,2.608 -0.137,2.608 -0.408,2.579 -0.676,2.523 -0.936,2.438 -1.186,2.327 -1.422,2.19 -1.644,2.03 -1.846,1.846 -2.03,1.644 -2.19,1.422 -2.327,1.186 -2.438,0.936 -2.523,0.676 -2.579,0.408 -2.608,0.137 -2.608,-0.137 -2.579,-0.408 -2.523,-0.676 -2.438,-0.936 -2.327,-1.186 -2.19,-1.422 -2.03,-1.644 -1.846,-1.846 -1.644,-2.03 -1.422,-2.19 -1.186,-2.327 -0.936,-2.438 -0.676,-2.523 -0.408,-2.579 z"
         style="fill:none;stroke:#ff0000;stroke-width:0.26458332;stroke-miterlimit:4;stroke-dasharray:none"
         inkscape:connector-curvature="0" />
    </g>
    <path
       style="fill:none;stroke:#ff0000;stroke-width:0.26458332;stroke-miterlimit:4;stroke-dasharray:none"
       d="m 127.41441,230.56425 h 5.90008 v 3 h 6.2 v -3 h 42.3 v 3 h 6.2 v -3 h 5.89992 v -56.5 h -5.89992 v -2.99999 h -6.2 v 2.99999 h -42.3 v -2.99999 h -6.2 v 2.99999 h -5.90008 z"
       id="path4218"
       inkscape:connector-curvature="0"
       sodipodi:nodetypes="ccccccccccccccccccccc" />
    <g
       id="g4418"
       transform="translate(-28.591065,276.5858)"
       style="stroke-width:0.26458332;stroke-miterlimit:4;stroke-dasharray:none">
      <path
         id="path4216"
         d="m 240,-47 h 40 v -70 h -13.5 v 35 h -13 v -35 H 240 Z"
         style="fill:none;stroke:#ff0000;stroke-width:0.26458332;stroke-miterlimit:4;stroke-dasharray:none"
         inkscape:connector-curvature="0" />
      <path
         id="path4214"
         d="m 244.5,-57 0.008,-0.1568 0.025,-0.1551 0.04,-0.1516 0.057,-0.1466 0.071,-0.1399 0.085,-0.1317 0.099,-0.122 0.111,-0.111 0.122,-0.0988 0.132,-0.0855 0.14,-0.0713 0.146,-0.0563 0.152,-0.0406 0.155,-0.0246 0.157,-0.0082 0.157,0.0082 0.155,0.0246 0.152,0.0406 0.146,0.0563 0.14,0.0713 0.132,0.0855 0.122,0.0988 0.111,0.111 0.099,0.122 0.085,0.1317 0.071,0.1399 0.057,0.1466 0.04,0.1516 0.025,0.1551 0.008,0.1568 -0.008,0.1568 -0.025,0.1551 -0.04,0.1516 -0.057,0.1466 -0.071,0.1399 -0.085,0.1317 -0.099,0.122 -0.111,0.111 -0.122,0.0988 -0.132,0.0855 -0.14,0.0713 -0.146,0.0563 -0.152,0.0406 -0.155,0.0246 -0.157,0.0082 -0.157,-0.0082 -0.155,-0.0246 -0.152,-0.0406 -0.146,-0.0563 -0.14,-0.0713 -0.132,-0.0855 -0.122,-0.0988 -0.111,-0.111 -0.099,-0.122 -0.085,-0.1317 -0.071,-0.1399 -0.057,-0.1466 -0.04,-0.1516 -0.025,-0.1551 z"
         style="fill:none;stroke:#ff0000;stroke-width:0.26458332;stroke-miterlimit:4;stroke-dasharray:none"
         inkscape:connector-curvature="0" />
      <path
         id="path4212"
         d="m 272.5,-57 0.008,-0.1568 0.025,-0.1551 0.04,-0.1516 0.057,-0.1466 0.071,-0.1399 0.085,-0.1317 0.099,-0.122 0.111,-0.111 0.122,-0.0988 0.132,-0.0855 0.14,-0.0713 0.146,-0.0563 0.152,-0.0406 0.155,-0.0246 0.157,-0.0082 0.157,0.0082 0.155,0.0246 0.152,0.0406 0.146,0.0563 0.14,0.0713 0.132,0.0855 0.122,0.0988 0.111,0.111 0.099,0.122 0.085,0.1317 0.071,0.1399 0.057,0.1466 0.04,0.1516 0.025,0.1551 0.008,0.1568 -0.008,0.1568 -0.025,0.1551 -0.04,0.1516 -0.057,0.1466 -0.071,0.1399 -0.085,0.1317 -0.099,0.122 -0.111,0.111 -0.122,0.0988 -0.132,0.0855 -0.14,0.0713 -0.146,0.0563 -0.152,0.0406 -0.155,0.0246 -0.157,0.0082 -0.157,-0.0082 -0.155,-0.0246 -0.152,-0.0406 -0.146,-0.0563 -0.14,-0.0713 -0.132,-0.0855 -0.122,-0.0988 -0.111,-0.111 -0.099,-0.122 -0.085,-0.1317 -0.071,-0.1399 -0.057,-0.1466 -0.04,-0.1516 -0.025,-0.1551 z"
         style="fill:none;stroke:#ff0000;stroke-width:0.26458332;stroke-miterlimit:4;stroke-dasharray:none"
         inkscape:connector-curvature="0" />
    </g>
  </g>
</svg>
