<?xml version="1.0" standalone="no"?>
<!DOCTYPE svg PUBLIC "-//W3C//DTD SVG 1.1//EN" "http://www.w3.org/Graphics/SVG/1.1/DTD/svg11.dtd">
<svg width="482mm" height="343mm" viewBox="-35 -301 482 343" xmlns="http://www.w3.org/2000/svg" version="1.1">
<title>OpenSCAD Model</title>
<path d="
M -34.5,40 L 34.5,40 L 34.5,-94.7 L -34.5,-94.7 z
M -24.85,-0 L -24.7139,-2.59753 L -24.307,-5.1666 L -23.6338,-7.67907 L -22.7016,-10.1074 L -21.5207,-12.425
 L -20.1041,-14.6065 L -18.4671,-16.6279 L -16.6279,-18.4671 L -14.6065,-20.1041 L -12.425,-21.5207 L -10.1074,-22.7016
 L -7.67907,-23.6338 L -5.1666,-24.307 L -2.59753,-24.7139 L -1.04361e-14,-24.85 L 2.59753,-24.7139 L 5.1666,-24.307
 L 7.67907,-23.6338 L 10.1074,-22.7016 L 12.425,-21.5207 L 14.6065,-20.1041 L 16.6279,-18.4671 L 18.4671,-16.6279
 L 20.1041,-14.6065 L 21.5207,-12.425 L 22.7016,-10.1074 L 23.6338,-7.67907 L 24.307,-5.1666 L 24.7139,-2.59753
 L 24.85,-0 L 24.7139,2.59753 L 24.307,5.1666 L 23.6338,7.67907 L 22.7016,10.1074 L 21.5207,12.425
 L 20.1041,14.6065 L 18.4671,16.6279 L 16.6279,18.4671 L 14.6065,20.1041 L 12.425,21.5207 L 10.1074,22.7016
 L 7.67907,23.6338 L 5.1666,24.307 L 2.59753,24.7139 L -1.04361e-14,24.85 L -2.59753,24.7139 L -5.1666,24.307
 L -7.67907,23.6338 L -10.1074,22.7016 L -12.425,21.5207 L -14.6065,20.1041 L -16.6279,18.4671 L -18.4671,16.6279
 L -20.1041,14.6065 L -21.5207,12.425 L -22.7016,10.1074 L -23.6338,7.67907 L -24.307,5.1666 L -24.7139,2.59753
 z
M -20.75,34.65 L -20.7404,34.4671 L -20.7118,34.2862 L -20.6643,34.1092 L -20.5987,33.9382 L -20.5155,33.775
 L -20.4158,33.6214 L -20.3005,33.479 L -20.171,33.3495 L -20.0286,33.2342 L -19.875,33.1345 L -19.7118,33.0513
 L -19.5408,32.9857 L -19.3638,32.9382 L -19.1829,32.9096 L -19,32.9 L -18.8171,32.9096 L -18.6362,32.9382
 L -18.4592,32.9857 L -18.2882,33.0513 L -18.125,33.1345 L -17.9714,33.2342 L -17.829,33.3495 L -17.6995,33.479
 L -17.5842,33.6214 L -17.4845,33.775 L -17.4013,33.9382 L -17.3357,34.1092 L -17.2882,34.2862 L -17.2596,34.4671
 L -17.25,34.65 L -17.2596,34.8329 L -17.2882,35.0138 L -17.3357,35.1908 L -17.4013,35.3618 L -17.4845,35.525
 L -17.5842,35.6786 L -17.6995,35.821 L -17.829,35.9505 L -17.9714,36.0658 L -18.0482,36.1157 L -18.125,36.1655
 L -18.2066,36.2071 L -18.2882,36.2487 L -18.4592,36.3143 L -18.6362,36.3618 L -18.8171,36.3904 L -19,36.4
 L -19.1829,36.3904 L -19.3638,36.3618 L -19.5408,36.3143 L -19.7118,36.2487 L -19.875,36.1655 L -20.0286,36.0658
 L -20.171,35.9505 L -20.3005,35.821 L -20.4158,35.6786 L -20.5155,35.525 L -20.5987,35.3618 L -20.6643,35.1908
 L -20.7118,35.0138 L -20.7404,34.8329 z
M -20.75,-89.35 L -20.7404,-89.5329 L -20.7118,-89.7138 L -20.6643,-89.8908 L -20.5987,-90.0618 L -20.5155,-90.225
 L -20.4158,-90.3786 L -20.3005,-90.521 L -20.171,-90.6505 L -20.0286,-90.7658 L -19.875,-90.8655 L -19.7118,-90.9487
 L -19.5408,-91.0143 L -19.3638,-91.0618 L -19.1829,-91.0904 L -19,-91.1 L -18.8171,-91.0904 L -18.6362,-91.0618
 L -18.4592,-91.0143 L -18.2882,-90.9487 L -18.125,-90.8655 L -17.9714,-90.7658 L -17.829,-90.6505 L -17.6995,-90.521
 L -17.5842,-90.3786 L -17.4845,-90.225 L -17.4013,-90.0618 L -17.3357,-89.8908 L -17.2882,-89.7138 L -17.2596,-89.5329
 L -17.25,-89.35 L -17.2596,-89.1671 L -17.2882,-88.9862 L -17.3357,-88.8092 L -17.4013,-88.6382 L -17.4845,-88.475
 L -17.5842,-88.3214 L -17.6995,-88.179 L -17.829,-88.0495 L -17.9714,-87.9342 L -18.0482,-87.8843 L -18.125,-87.8345
 L -18.2066,-87.7929 L -18.2882,-87.7513 L -18.4592,-87.6857 L -18.6362,-87.6382 L -18.8171,-87.6096 L -19,-87.6
 L -19.1829,-87.6096 L -19.3638,-87.6382 L -19.5408,-87.6857 L -19.7118,-87.7513 L -19.875,-87.8345 L -20.0286,-87.9342
 L -20.171,-88.0495 L -20.3005,-88.179 L -20.4158,-88.3214 L -20.5155,-88.475 L -20.5987,-88.6382 L -20.6643,-88.8092
 L -20.7118,-88.9862 L -20.7404,-89.1671 z
M 17.25,34.65 L 17.2596,34.4671 L 17.2882,34.2862 L 17.3357,34.1092 L 17.4013,33.9382 L 17.4845,33.775
 L 17.5842,33.6214 L 17.6995,33.479 L 17.829,33.3495 L 17.9714,33.2342 L 18.125,33.1345 L 18.2882,33.0513
 L 18.4592,32.9857 L 18.6362,32.9382 L 18.8171,32.9096 L 19,32.9 L 19.1829,32.9096 L 19.3638,32.9382
 L 19.5408,32.9857 L 19.7118,33.0513 L 19.875,33.1345 L 20.0286,33.2342 L 20.171,33.3495 L 20.3005,33.479
 L 20.4158,33.6214 L 20.5155,33.775 L 20.5987,33.9382 L 20.6643,34.1092 L 20.7118,34.2862 L 20.7404,34.4671
 L 20.75,34.65 L 20.7404,34.8329 L 20.7118,35.0138 L 20.6643,35.1908 L 20.5987,35.3618 L 20.5155,35.525
 L 20.4158,35.6786 L 20.3005,35.821 L 20.171,35.9505 L 20.0286,36.0658 L 19.875,36.1655 L 19.7118,36.2487
 L 19.5408,36.3143 L 19.3638,36.3618 L 19.1829,36.3904 L 19,36.4 L 18.8171,36.3904 L 18.6362,36.3618
 L 18.4592,36.3143 L 18.2882,36.2487 L 18.125,36.1655 L 17.9714,36.0658 L 17.829,35.9505 L 17.6995,35.821
 L 17.5842,35.6786 L 17.4845,35.525 L 17.4013,35.3618 L 17.3357,35.1908 L 17.2882,35.0138 L 17.2596,34.8329
 z
M 17.25,-89.35 L 17.2596,-89.5329 L 17.2882,-89.7138 L 17.3357,-89.8908 L 17.4013,-90.0618 L 17.4845,-90.225
 L 17.5842,-90.3786 L 17.6995,-90.521 L 17.829,-90.6505 L 17.9714,-90.7658 L 18.125,-90.8655 L 18.2882,-90.9487
 L 18.4592,-91.0143 L 18.6362,-91.0618 L 18.8171,-91.0904 L 19,-91.1 L 19.1829,-91.0904 L 19.3638,-91.0618
 L 19.5408,-91.0143 L 19.7118,-90.9487 L 19.875,-90.8655 L 20.0286,-90.7658 L 20.171,-90.6505 L 20.3005,-90.521
 L 20.4158,-90.3786 L 20.5155,-90.225 L 20.5987,-90.0618 L 20.6643,-89.8908 L 20.7118,-89.7138 L 20.7404,-89.5329
 L 20.75,-89.35 L 20.7404,-89.1671 L 20.7118,-88.9862 L 20.6643,-88.8092 L 20.5987,-88.6382 L 20.5155,-88.475
 L 20.4158,-88.3214 L 20.3005,-88.179 L 20.171,-88.0495 L 20.0286,-87.9342 L 19.875,-87.8345 L 19.7118,-87.7513
 L 19.5408,-87.6857 L 19.3638,-87.6382 L 19.1829,-87.6096 L 19,-87.6 L 18.8171,-87.6096 L 18.6362,-87.6382
 L 18.4592,-87.6857 L 18.2882,-87.7513 L 18.125,-87.8345 L 17.9714,-87.9342 L 17.829,-88.0495 L 17.6995,-88.179
 L 17.5842,-88.3214 L 17.4845,-88.475 L 17.4013,-88.6382 L 17.3357,-88.8092 L 17.2882,-88.9862 L 17.2596,-89.1671
 z
M -34.5,-100 L 34.5,-100 L 34.5,-234.7 L -34.5,-234.7 z
M -20.75,-105.35 L -20.7404,-105.533 L -20.7118,-105.714 L -20.6643,-105.891 L -20.5987,-106.062 L -20.5155,-106.225
 L -20.4158,-106.379 L -20.3005,-106.521 L -20.171,-106.651 L -20.0286,-106.766 L -19.875,-106.866 L -19.7118,-106.949
 L -19.5408,-107.014 L -19.3638,-107.062 L -19.1829,-107.09 L -19,-107.1 L -18.8171,-107.09 L -18.6362,-107.062
 L -18.4592,-107.014 L -18.2882,-106.949 L -18.125,-106.866 L -17.9714,-106.766 L -17.829,-106.651 L -17.6995,-106.521
 L -17.5842,-106.379 L -17.4845,-106.225 L -17.4013,-106.062 L -17.3357,-105.891 L -17.2882,-105.714 L -17.2596,-105.533
 L -17.25,-105.35 L -17.2596,-105.167 L -17.2882,-104.986 L -17.3357,-104.809 L -17.4013,-104.638 L -17.4845,-104.475
 L -17.5842,-104.321 L -17.6995,-104.179 L -17.829,-104.049 L -17.9714,-103.934 L -18.0482,-103.884 L -18.125,-103.834
 L -18.2066,-103.793 L -18.2882,-103.751 L -18.4592,-103.686 L -18.6362,-103.638 L -18.8171,-103.61 L -19,-103.6
 L -19.1829,-103.61 L -19.3638,-103.638 L -19.5408,-103.686 L -19.7118,-103.751 L -19.875,-103.834 L -20.0286,-103.934
 L -20.171,-104.049 L -20.3005,-104.179 L -20.4158,-104.321 L -20.5155,-104.475 L -20.5987,-104.638 L -20.6643,-104.809
 L -20.7118,-104.986 L -20.7404,-105.167 z
M -20.75,-229.35 L -20.7404,-229.533 L -20.7118,-229.714 L -20.6643,-229.891 L -20.5987,-230.062 L -20.5155,-230.225
 L -20.4158,-230.379 L -20.3005,-230.521 L -20.171,-230.651 L -20.0286,-230.766 L -19.875,-230.866 L -19.7118,-230.949
 L -19.5408,-231.014 L -19.3638,-231.062 L -19.1829,-231.09 L -19,-231.1 L -18.8171,-231.09 L -18.6362,-231.062
 L -18.4592,-231.014 L -18.2882,-230.949 L -18.125,-230.866 L -17.9714,-230.766 L -17.829,-230.651 L -17.6995,-230.521
 L -17.5842,-230.379 L -17.4845,-230.225 L -17.4013,-230.062 L -17.3357,-229.891 L -17.2882,-229.714 L -17.2596,-229.533
 L -17.25,-229.35 L -17.2596,-229.167 L -17.2882,-228.986 L -17.3357,-228.809 L -17.4013,-228.638 L -17.4845,-228.475
 L -17.5842,-228.321 L -17.6995,-228.179 L -17.829,-228.049 L -17.9714,-227.934 L -18.0482,-227.884 L -18.125,-227.834
 L -18.2066,-227.793 L -18.2882,-227.751 L -18.4592,-227.686 L -18.6362,-227.638 L -18.8171,-227.61 L -19,-227.6
 L -19.1829,-227.61 L -19.3638,-227.638 L -19.5408,-227.686 L -19.7118,-227.751 L -19.875,-227.834 L -20.0286,-227.934
 L -20.171,-228.049 L -20.3005,-228.179 L -20.4158,-228.321 L -20.5155,-228.475 L -20.5987,-228.638 L -20.6643,-228.809
 L -20.7118,-228.986 L -20.7404,-229.167 z
M -6,-183 L -6,-196 L 5,-196 L 5,-183 z
M 17.25,-105.35 L 17.2596,-105.533 L 17.2882,-105.714 L 17.3357,-105.891 L 17.4013,-106.062 L 17.4845,-106.225
 L 17.5842,-106.379 L 17.6995,-106.521 L 17.829,-106.651 L 17.9714,-106.766 L 18.125,-106.866 L 18.2882,-106.949
 L 18.4592,-107.014 L 18.6362,-107.062 L 18.8171,-107.09 L 19,-107.1 L 19.1829,-107.09 L 19.3638,-107.062
 L 19.5408,-107.014 L 19.7118,-106.949 L 19.875,-106.866 L 20.0286,-106.766 L 20.171,-106.651 L 20.3005,-106.521
 L 20.4158,-106.379 L 20.5155,-106.225 L 20.5987,-106.062 L 20.6643,-105.891 L 20.7118,-105.714 L 20.7404,-105.533
 L 20.75,-105.35 L 20.7404,-105.167 L 20.7118,-104.986 L 20.6643,-104.809 L 20.5987,-104.638 L 20.5155,-104.475
 L 20.4158,-104.321 L 20.3005,-104.179 L 20.171,-104.049 L 20.0286,-103.934 L 19.875,-103.834 L 19.7118,-103.751
 L 19.5408,-103.686 L 19.3638,-103.638 L 19.1829,-103.61 L 19,-103.6 L 18.8171,-103.61 L 18.6362,-103.638
 L 18.4592,-103.686 L 18.2882,-103.751 L 18.125,-103.834 L 17.9714,-103.934 L 17.829,-104.049 L 17.6995,-104.179
 L 17.5842,-104.321 L 17.4845,-104.475 L 17.4013,-104.638 L 17.3357,-104.809 L 17.2882,-104.986 L 17.2596,-105.167
 z
M 17.25,-229.35 L 17.2596,-229.533 L 17.2882,-229.714 L 17.3357,-229.891 L 17.4013,-230.062 L 17.4845,-230.225
 L 17.5842,-230.379 L 17.6995,-230.521 L 17.829,-230.651 L 17.9714,-230.766 L 18.125,-230.866 L 18.2882,-230.949
 L 18.4592,-231.014 L 18.6362,-231.062 L 18.8171,-231.09 L 19,-231.1 L 19.1829,-231.09 L 19.3638,-231.062
 L 19.5408,-231.014 L 19.7118,-230.949 L 19.875,-230.866 L 20.0286,-230.766 L 20.171,-230.651 L 20.3005,-230.521
 L 20.4158,-230.379 L 20.5155,-230.225 L 20.5987,-230.062 L 20.6643,-229.891 L 20.7118,-229.714 L 20.7404,-229.533
 L 20.75,-229.35 L 20.7404,-229.167 L 20.7118,-228.986 L 20.6643,-228.809 L 20.5987,-228.638 L 20.5155,-228.475
 L 20.4158,-228.321 L 20.3005,-228.179 L 20.171,-228.049 L 20.0286,-227.934 L 19.875,-227.834 L 19.7118,-227.751
 L 19.5408,-227.686 L 19.3638,-227.638 L 19.1829,-227.61 L 19,-227.6 L 18.8171,-227.61 L 18.6362,-227.638
 L 18.4592,-227.686 L 18.2882,-227.751 L 18.125,-227.834 L 17.9714,-227.934 L 17.829,-228.049 L 17.6995,-228.179
 L 17.5842,-228.321 L 17.4845,-228.475 L 17.4013,-228.638 L 17.3357,-228.809 L 17.2882,-228.986 L 17.2596,-229.167
 z
M -31.25,-239 L 31.25,-239 L 31.25,-245 L 28.25,-245 L 28.25,-295 L 31.25,-295
 L 31.25,-301 L -31.25,-301 L -31.25,-295 L -28.25,-295 L -28.25,-245 L -31.25,-245
 z
M -24.85,-270 L -24.7139,-272.598 L -24.307,-275.167 L -23.6338,-277.679 L -22.7016,-280.107 L -21.5207,-282.425
 L -20.1041,-284.606 L -18.4671,-286.628 L -16.6279,-288.467 L -14.6065,-290.104 L -12.425,-291.521 L -10.1074,-292.702
 L -7.67907,-293.634 L -5.1666,-294.307 L -2.59753,-294.714 L -1.04361e-14,-294.85 L 2.59753,-294.714 L 5.1666,-294.307
 L 7.67907,-293.634 L 10.1074,-292.702 L 12.425,-291.521 L 14.6065,-290.104 L 16.6279,-288.467 L 18.4671,-286.628
 L 20.1041,-284.606 L 21.5207,-282.425 L 22.7016,-280.107 L 23.6338,-277.679 L 24.307,-275.167 L 24.7139,-272.598
 L 24.85,-270 L 24.7139,-267.402 L 24.307,-264.833 L 23.6338,-262.321 L 22.7016,-259.893 L 21.5207,-257.575
 L 20.1041,-255.394 L 18.4671,-253.372 L 16.6279,-251.533 L 14.6065,-249.896 L 12.425,-248.479 L 10.1074,-247.298
 L 7.67907,-246.366 L 5.1666,-245.693 L 2.59753,-245.286 L -1.04361e-14,-245.15 L -2.59753,-245.286 L -5.1666,-245.693
 L -7.67907,-246.366 L -10.1074,-247.298 L -12.425,-248.479 L -14.6065,-249.896 L -16.6279,-251.533 L -18.4671,-253.372
 L -20.1041,-255.394 L -21.5207,-257.575 L -22.7016,-259.893 L -23.6338,-262.321 L -24.307,-264.833 L -24.7139,-267.402
 z
M 33.75,-251 L 36.75,-251 L 36.75,-239 L 93.25,-239 L 93.25,-251 L 96.25,-251
 L 96.25,-257 L 93.25,-257 L 93.25,-283 L 96.25,-283 L 96.25,-289 L 93.25,-289
 L 93.25,-301 L 36.75,-301 L 36.75,-289 L 33.75,-289 L 33.75,-283 L 36.75,-283
 L 36.75,-257 L 33.75,-257 z
M 40.15,-270 L 40.2861,-272.598 L 40.693,-275.167 L 41.3662,-277.679 L 42.2984,-280.107 L 43.4793,-282.425
 L 44.8959,-284.606 L 46.5329,-286.628 L 48.3721,-288.467 L 50.3935,-290.104 L 52.575,-291.521 L 54.8926,-292.702
 L 57.3209,-293.634 L 59.8334,-294.307 L 62.4025,-294.714 L 65,-294.85 L 67.5975,-294.714 L 70.1666,-294.307
 L 72.6791,-293.634 L 75.1074,-292.702 L 77.425,-291.521 L 79.6065,-290.104 L 81.6279,-288.467 L 83.4671,-286.628
 L 85.1041,-284.606 L 86.5207,-282.425 L 87.7016,-280.107 L 88.6338,-277.679 L 89.307,-275.167 L 89.7139,-272.598
 L 89.85,-270 L 89.7139,-267.402 L 89.307,-264.833 L 88.6338,-262.321 L 87.7016,-259.893 L 86.5207,-257.575
 L 85.1041,-255.394 L 83.4671,-253.372 L 81.6279,-251.533 L 79.6065,-249.896 L 77.425,-248.479 L 75.1074,-247.298
 L 72.6791,-246.366 L 70.1666,-245.693 L 67.5975,-245.286 L 65,-245.15 L 62.4025,-245.286 L 59.8334,-245.693
 L 57.3209,-246.366 L 54.8926,-247.298 L 52.575,-248.479 L 50.3935,-249.896 L 48.3721,-251.533 L 46.5329,-253.372
 L 44.8959,-255.394 L 43.4793,-257.575 L 42.2984,-259.893 L 41.3662,-262.321 L 40.693,-264.833 L 40.2861,-267.402
 z
M 43,38.5 L 221,38.5 L 221,-93.5 L 43,-93.5 z
M 45,31 L 45,25 L 48,25 L 48,31 z
M 45,-25 L 45,-31 L 48,-31 L 48,-25 z
M 48,19 L 48,13 L 51,13 L 51,19 z
M 48,-13 L 48,-19 L 51,-19 L 51,-13 z
M 51,31 L 51,25 L 54,25 L 54,31 z
M 51,-25 L 51,-31 L 54,-31 L 54,-25 z
M 54,19 L 54,13 L 57,13 L 57,19 z
M 54,-13 L 54,-19 L 57,-19 L 57,-13 z
M 55.4292,-58.6318 L 57.7803,-60.4953 L 61.5072,-55.7931 L 59.1561,-53.9297 z
M 57,31 L 57,25 L 60,25 L 60,31 z
M 57,-25 L 57,-31 L 60,-31 L 60,-25 z
M 73.309,-40.9029 L 78.0111,-44.6298 L 81.738,-39.9277 L 77.0359,-36.2008 z
M 74.9054,-48.5483 L 79.6076,-52.2752 L 81.471,-49.9241 L 76.7688,-46.1972 z
M 81.5174,-25.7167 L 88.5707,-31.307 L 92.2975,-26.6049 L 85.2443,-21.0145 z
M 93.9404,-10.0428 L 100.994,-15.6332 L 104.72,-10.931 L 97.6673,-5.34068 z
M 106.851,1.41651 L 111.553,-2.31038 L 115.28,2.39178 L 110.578,6.11867 z
M 112.915,-78.674 L 117.617,-82.4008 L 119.48,-80.0498 L 114.778,-76.3229 z
M 116.522,3.95917 L 121.224,0.232279 L 123.088,2.58336 L 118.386,6.31025 z
M 120.029,22.8723 L 122.38,21.0088 L 126.107,25.711 L 123.755,27.5744 z
M 154.531,-26.1665 L 159.234,-29.8934 L 161.097,-27.5423 L 156.395,-23.8154 z
M 161.451,-36.755 L 163.802,-38.6185 L 167.529,-33.9163 L 165.178,-32.0529 z
M 181.328,-11.6769 L 183.679,-13.5403 L 187.406,-8.83814 L 185.055,-6.9747 z
M 193,29.5 L 193,23.5 L 196,23.5 L 196,29.5 z
M 193,-21.5 L 193,-27.5 L 196,-27.5 L 196,-21.5 z
M 193,-78.5 L 193,-84.5 L 196,-84.5 L 196,-78.5 z
M 43,-101.5 L 221,-101.5 L 221,-233.5 L 43,-233.5 z
M 45,-109 L 45,-115 L 48,-115 L 48,-109 z
M 45,-165 L 45,-171 L 48,-171 L 48,-165 z
M 48,-121 L 48,-127 L 51,-127 L 51,-121 z
M 48,-153 L 48,-159 L 51,-159 L 51,-153 z
M 51,-109 L 51,-115 L 54,-115 L 54,-109 z
M 51,-165 L 51,-171 L 54,-171 L 54,-165 z
M 54,-121 L 54,-127 L 57,-127 L 57,-121 z
M 54,-153 L 54,-159 L 57,-159 L 57,-153 z
M 55.4292,-198.632 L 57.7803,-200.495 L 61.5072,-195.793 L 59.1561,-193.93 z
M 57,-109 L 57,-115 L 60,-115 L 60,-109 z
M 57,-165 L 57,-171 L 60,-171 L 60,-165 z
M 73.309,-180.903 L 78.0111,-184.63 L 81.738,-179.928 L 77.0359,-176.201 z
M 74.9054,-188.548 L 79.6076,-192.275 L 81.471,-189.924 L 76.7688,-186.197 z
M 81.5174,-165.717 L 88.5707,-171.307 L 92.2975,-166.605 L 85.2443,-161.015 z
M 93.9404,-150.043 L 100.994,-155.633 L 104.72,-150.931 L 97.6673,-145.341 z
M 106.851,-138.583 L 111.553,-142.31 L 115.28,-137.608 L 110.578,-133.881 z
M 112.915,-218.674 L 117.617,-222.401 L 119.48,-220.05 L 114.778,-216.323 z
M 116.522,-136.041 L 121.224,-139.768 L 123.088,-137.417 L 118.386,-133.69 z
M 120.029,-117.128 L 122.38,-118.991 L 126.107,-114.289 L 123.755,-112.426 z
M 154.531,-166.167 L 159.234,-169.893 L 161.097,-167.542 L 156.395,-163.815 z
M 161.451,-176.755 L 163.802,-178.618 L 167.529,-173.916 L 165.178,-172.053 z
M 181.328,-151.677 L 183.679,-153.54 L 187.406,-148.838 L 185.055,-146.975 z
M 193,-110.5 L 193,-116.5 L 196,-116.5 L 196,-110.5 z
M 193,-161.5 L 193,-167.5 L 196,-167.5 L 196,-161.5 z
M 193,-218.5 L 193,-224.5 L 196,-224.5 L 196,-218.5 z
M 98.75,-239 L 161.25,-239 L 161.25,-245 L 158.25,-245 L 158.25,-295 L 161.25,-295
 L 161.25,-301 L 98.75,-301 L 98.75,-295 L 101.75,-295 L 101.75,-245 L 98.75,-245
 z
M 105.15,-270 L 105.286,-272.598 L 105.693,-275.167 L 106.366,-277.679 L 107.298,-280.107 L 108.479,-282.425
 L 109.896,-284.606 L 111.533,-286.628 L 113.372,-288.467 L 115.394,-290.104 L 117.575,-291.521 L 119.893,-292.702
 L 122.321,-293.634 L 124.833,-294.307 L 127.402,-294.714 L 130,-294.85 L 132.598,-294.714 L 135.167,-294.307
 L 137.679,-293.634 L 140.107,-292.702 L 142.425,-291.521 L 144.606,-290.104 L 146.628,-288.467 L 148.467,-286.628
 L 150.104,-284.606 L 151.521,-282.425 L 152.702,-280.107 L 153.634,-277.679 L 154.307,-275.167 L 154.714,-272.598
 L 154.85,-270 L 154.714,-267.402 L 154.307,-264.833 L 153.634,-262.321 L 152.702,-259.893 L 151.521,-257.575
 L 150.104,-255.394 L 148.467,-253.372 L 146.628,-251.533 L 144.606,-249.896 L 142.425,-248.479 L 140.107,-247.298
 L 137.679,-246.366 L 135.167,-245.693 L 132.598,-245.286 L 130,-245.15 L 127.402,-245.286 L 124.833,-245.693
 L 122.321,-246.366 L 119.893,-247.298 L 117.575,-248.479 L 115.394,-249.896 L 113.372,-251.533 L 111.533,-253.372
 L 109.896,-255.394 L 108.479,-257.575 L 107.298,-259.893 L 106.366,-262.321 L 105.693,-264.833 L 105.286,-267.402
 z
M 163.75,-251 L 166.75,-251 L 166.75,-239 L 223.25,-239 L 223.25,-251 L 226.25,-251
 L 226.25,-257 L 223.25,-257 L 223.25,-283 L 226.25,-283 L 226.25,-289 L 223.25,-289
 L 223.25,-301 L 166.75,-301 L 166.75,-289 L 163.75,-289 L 163.75,-283 L 166.75,-283
 L 166.75,-257 L 163.75,-257 z
M 170.15,-270 L 170.286,-272.598 L 170.693,-275.167 L 171.366,-277.679 L 172.298,-280.107 L 173.479,-282.425
 L 174.896,-284.606 L 176.533,-286.628 L 178.372,-288.467 L 180.394,-290.104 L 182.575,-291.521 L 184.893,-292.702
 L 187.321,-293.634 L 189.833,-294.307 L 192.402,-294.714 L 195,-294.85 L 197.598,-294.714 L 200.167,-294.307
 L 202.679,-293.634 L 205.107,-292.702 L 207.425,-291.521 L 209.606,-290.104 L 211.628,-288.467 L 213.467,-286.628
 L 215.104,-284.606 L 216.521,-282.425 L 217.702,-280.107 L 218.634,-277.679 L 219.307,-275.167 L 219.714,-272.598
 L 219.85,-270 L 219.714,-267.402 L 219.307,-264.833 L 218.634,-262.321 L 217.702,-259.893 L 216.521,-257.575
 L 215.104,-255.394 L 213.467,-253.372 L 211.628,-251.533 L 209.606,-249.896 L 207.425,-248.479 L 205.107,-247.298
 L 202.679,-246.366 L 200.167,-245.693 L 197.598,-245.286 L 195,-245.15 L 192.402,-245.286 L 189.833,-245.693
 L 187.321,-246.366 L 184.893,-247.298 L 182.575,-248.479 L 180.394,-249.896 L 178.372,-251.533 L 176.533,-253.372
 L 174.896,-255.394 L 173.479,-257.575 L 172.298,-259.893 L 171.366,-262.321 L 170.693,-264.833 L 170.286,-267.402
 z
M 228.75,-134 L 231.75,-134 L 231.75,-128 L 288.25,-128 L 288.25,-134 L 291.25,-134
 L 291.25,-140 L 288.25,-140 L 288.25,-166 L 291.25,-166 L 291.25,-172 L 288.25,-172
 L 288.25,-178 L 231.75,-178 L 231.75,-172 L 228.75,-172 L 228.75,-166 L 231.75,-166
 L 231.75,-140 L 228.75,-140 z
M 243,-155.5 L 243,-158.5 L 249,-158.5 L 249,-155.5 z
M 271,-155.5 L 271,-158.5 L 277,-158.5 L 277,-155.5 z
M 228.75,-239 L 291.25,-239 L 291.25,-245 L 288.25,-245 L 288.25,-295 L 291.25,-295
 L 291.25,-301 L 228.75,-301 L 228.75,-295 L 231.75,-295 L 231.75,-245 L 228.75,-245
 z
M 235.15,-270 L 235.286,-272.598 L 235.693,-275.167 L 236.366,-277.679 L 237.298,-280.107 L 238.479,-282.425
 L 239.896,-284.606 L 241.533,-286.628 L 243.372,-288.467 L 245.394,-290.104 L 247.575,-291.521 L 249.893,-292.702
 L 252.321,-293.634 L 254.833,-294.307 L 257.402,-294.714 L 260,-294.85 L 262.598,-294.714 L 265.167,-294.307
 L 267.679,-293.634 L 270.107,-292.702 L 272.425,-291.521 L 274.606,-290.104 L 276.628,-288.467 L 278.467,-286.628
 L 280.104,-284.606 L 281.521,-282.425 L 282.702,-280.107 L 283.634,-277.679 L 284.307,-275.167 L 284.714,-272.598
 L 284.85,-270 L 284.714,-267.402 L 284.307,-264.833 L 283.634,-262.321 L 282.702,-259.893 L 281.521,-257.575
 L 280.104,-255.394 L 278.467,-253.372 L 276.628,-251.533 L 274.606,-249.896 L 272.425,-248.479 L 270.107,-247.298
 L 267.679,-246.366 L 265.167,-245.693 L 262.598,-245.286 L 260,-245.15 L 257.402,-245.286 L 254.833,-245.693
 L 252.321,-246.366 L 249.893,-247.298 L 247.575,-248.479 L 245.394,-249.896 L 243.372,-251.533 L 241.533,-253.372
 L 239.896,-255.394 L 238.479,-257.575 L 237.298,-259.893 L 236.366,-262.321 L 235.693,-264.833 L 235.286,-267.402
 z
M 230,38.25 L 236,38.25 L 236,41.25 L 242,41.25 L 242,38.25 L 284.5,38.25
 L 284.5,41.25 L 290.5,41.25 L 290.5,38.25 L 296.5,38.25 L 296.5,-18.25 L 290.5,-18.25
 L 290.5,-21.25 L 284.5,-21.25 L 284.5,-18.25 L 242,-18.25 L 242,-21.25 L 236,-21.25
 L 236,-18.25 L 230,-18.25 z
M 240,-47 L 280,-47 L 280,-117 L 266.5,-117 L 266.5,-82 L 253.5,-82
 L 253.5,-117 L 240,-117 z
M 244.5,-57 L 244.508,-57.1568 L 244.533,-57.3119 L 244.573,-57.4635 L 244.63,-57.6101 L 244.701,-57.75
 L 244.786,-57.8817 L 244.885,-58.0037 L 244.996,-58.1147 L 245.118,-58.2135 L 245.25,-58.299 L 245.39,-58.3703
 L 245.536,-58.4266 L 245.688,-58.4672 L 245.843,-58.4918 L 246,-58.5 L 246.157,-58.4918 L 246.312,-58.4672
 L 246.464,-58.4266 L 246.61,-58.3703 L 246.75,-58.299 L 246.882,-58.2135 L 247.004,-58.1147 L 247.115,-58.0037
 L 247.214,-57.8817 L 247.299,-57.75 L 247.37,-57.6101 L 247.427,-57.4635 L 247.467,-57.3119 L 247.492,-57.1568
 L 247.5,-57 L 247.492,-56.8432 L 247.467,-56.6881 L 247.427,-56.5365 L 247.37,-56.3899 L 247.299,-56.25
 L 247.214,-56.1183 L 247.115,-55.9963 L 247.004,-55.8853 L 246.882,-55.7865 L 246.75,-55.701 L 246.61,-55.6297
 L 246.464,-55.5734 L 246.312,-55.5328 L 246.157,-55.5082 L 246,-55.5 L 245.843,-55.5082 L 245.688,-55.5328
 L 245.536,-55.5734 L 245.39,-55.6297 L 245.25,-55.701 L 245.118,-55.7865 L 244.996,-55.8853 L 244.885,-55.9963
 L 244.786,-56.1183 L 244.701,-56.25 L 244.63,-56.3899 L 244.573,-56.5365 L 244.533,-56.6881 L 244.508,-56.8432
 z
M 272.5,-57 L 272.508,-57.1568 L 272.533,-57.3119 L 272.573,-57.4635 L 272.63,-57.6101 L 272.701,-57.75
 L 272.786,-57.8817 L 272.885,-58.0037 L 272.996,-58.1147 L 273.118,-58.2135 L 273.25,-58.299 L 273.39,-58.3703
 L 273.536,-58.4266 L 273.688,-58.4672 L 273.843,-58.4918 L 274,-58.5 L 274.157,-58.4918 L 274.312,-58.4672
 L 274.464,-58.4266 L 274.61,-58.3703 L 274.75,-58.299 L 274.882,-58.2135 L 275.004,-58.1147 L 275.115,-58.0037
 L 275.214,-57.8817 L 275.299,-57.75 L 275.37,-57.6101 L 275.427,-57.4635 L 275.467,-57.3119 L 275.492,-57.1568
 L 275.5,-57 L 275.492,-56.8432 L 275.467,-56.6881 L 275.427,-56.5365 L 275.37,-56.3899 L 275.299,-56.25
 L 275.214,-56.1183 L 275.115,-55.9963 L 275.004,-55.8853 L 274.882,-55.7865 L 274.75,-55.701 L 274.61,-55.6297
 L 274.464,-55.5734 L 274.312,-55.5328 L 274.157,-55.5082 L 274,-55.5 L 273.843,-55.5082 L 273.688,-55.5328
 L 273.536,-55.5734 L 273.39,-55.6297 L 273.25,-55.701 L 273.118,-55.7865 L 272.996,-55.8853 L 272.885,-55.9963
 L 272.786,-56.1183 L 272.701,-56.25 L 272.63,-56.3899 L 272.573,-56.5365 L 272.533,-56.6881 L 272.508,-56.8432
 z
M 308.75,30 L 371.25,30 L 371.25,24 L 368.25,24 L 368.25,13 L 371.25,13
 L 371.25,7 L 368.25,7 L 368.25,-7 L 371.25,-7 L 371.25,-13 L 368.25,-13
 L 368.25,-24 L 371.25,-24 L 371.25,-30 L 308.75,-30 L 308.75,-24 L 311.75,-24
 L 311.75,-13 L 308.75,-13 L 308.75,-7 L 311.75,-7 L 311.75,7 L 308.75,7
 L 308.75,13 L 311.75,13 L 311.75,24 L 308.75,24 z
M 320.55,-0 L 320.657,-2.03308 L 320.975,-4.04388 L 321.502,-6.01038 L 322.232,-7.91103 L 323.156,-9.725
 L 324.265,-11.4324 L 325.546,-13.0146 L 326.985,-14.4542 L 328.568,-15.7354 L 330.275,-16.8442 L 332.089,-17.7685
 L 333.99,-18.498 L 335.956,-19.025 L 337.967,-19.3435 L 340,-19.45 L 342.033,-19.3435 L 344.044,-19.025
 L 346.01,-18.498 L 347.911,-17.7685 L 349.725,-16.8442 L 351.432,-15.7354 L 353.015,-14.4542 L 354.454,-13.0146
 L 355.735,-11.4324 L 356.844,-9.725 L 357.768,-7.91103 L 358.498,-6.01038 L 359.025,-4.04388 L 359.343,-2.03308
 L 359.45,-0 L 359.343,2.03308 L 359.025,4.04388 L 358.498,6.01038 L 357.768,7.91103 L 356.844,9.725
 L 355.735,11.4324 L 354.454,13.0146 L 353.015,14.4542 L 351.432,15.7354 L 349.725,16.8442 L 347.911,17.7685
 L 346.01,18.498 L 344.044,19.025 L 342.033,19.3435 L 340,19.45 L 337.967,19.3435 L 335.956,19.025
 L 333.99,18.498 L 332.089,17.7685 L 330.275,16.8442 L 328.568,15.7354 L 326.985,14.4542 L 325.546,13.0146
 L 324.265,11.4324 L 323.156,9.725 L 322.232,7.91103 L 321.502,6.01038 L 320.975,4.04388 L 320.657,2.03308
 z
M 308.75,-40 L 371.25,-40 L 371.25,-46 L 368.25,-46 L 368.25,-57 L 371.25,-57
 L 371.25,-63 L 368.25,-63 L 368.25,-77 L 371.25,-77 L 371.25,-83 L 368.25,-83
 L 368.25,-94 L 371.25,-94 L 371.25,-100 L 308.75,-100 L 308.75,-94 L 311.75,-94
 L 311.75,-83 L 308.75,-83 L 308.75,-77 L 311.75,-77 L 311.75,-63 L 308.75,-63
 L 308.75,-57 L 311.75,-57 L 311.75,-46 L 308.75,-46 z
M 320.55,-70 L 320.657,-72.0331 L 320.975,-74.0439 L 321.502,-76.0104 L 322.232,-77.911 L 323.156,-79.725
 L 324.265,-81.4324 L 325.546,-83.0146 L 326.985,-84.4542 L 328.568,-85.7354 L 330.275,-86.8442 L 332.089,-87.7685
 L 333.99,-88.498 L 335.956,-89.025 L 337.967,-89.3435 L 340,-89.45 L 342.033,-89.3435 L 344.044,-89.025
 L 346.01,-88.498 L 347.911,-87.7685 L 349.725,-86.8442 L 351.432,-85.7354 L 353.015,-84.4542 L 354.454,-83.0146
 L 355.735,-81.4324 L 356.844,-79.725 L 357.768,-77.911 L 358.498,-76.0104 L 359.025,-74.0439 L 359.343,-72.0331
 L 359.45,-70 L 359.343,-67.9669 L 359.025,-65.9561 L 358.498,-63.9896 L 357.768,-62.089 L 356.844,-60.275
 L 355.735,-58.5676 L 354.454,-56.9854 L 353.015,-55.5458 L 351.432,-54.2646 L 349.725,-53.1558 L 347.911,-52.2315
 L 346.01,-51.502 L 344.044,-50.975 L 342.033,-50.6565 L 340,-50.55 L 337.967,-50.6565 L 335.956,-50.975
 L 333.99,-51.502 L 332.089,-52.2315 L 330.275,-53.1558 L 328.568,-54.2646 L 326.985,-55.5458 L 325.546,-56.9854
 L 324.265,-58.5676 L 323.156,-60.275 L 322.232,-62.089 L 321.502,-63.9896 L 320.975,-65.9561 L 320.657,-67.9669
 z
M 308.75,-105 L 371.25,-105 L 371.25,-111 L 368.25,-111 L 368.25,-147 L 371.25,-147
 L 371.25,-153 L 368.25,-153 L 368.25,-167 L 371.25,-167 L 371.25,-173 L 368.25,-173
 L 368.25,-209 L 371.25,-209 L 371.25,-215 L 308.75,-215 L 308.75,-209 L 311.75,-209
 L 311.75,-173 L 308.75,-173 L 308.75,-167 L 311.75,-167 L 311.75,-153 L 308.75,-153
 L 308.75,-147 L 311.75,-147 L 311.75,-111 L 308.75,-111 z
M 320.55,-160 L 320.657,-162.033 L 320.975,-164.044 L 321.502,-166.01 L 322.232,-167.911 L 323.156,-169.725
 L 324.265,-171.432 L 325.546,-173.015 L 326.985,-174.454 L 328.568,-175.735 L 330.275,-176.844 L 332.089,-177.768
 L 333.99,-178.498 L 335.956,-179.025 L 337.967,-179.343 L 340,-179.45 L 342.033,-179.343 L 344.044,-179.025
 L 346.01,-178.498 L 347.911,-177.768 L 349.725,-176.844 L 351.432,-175.735 L 353.015,-174.454 L 354.454,-173.015
 L 355.735,-171.432 L 356.844,-169.725 L 357.768,-167.911 L 358.498,-166.01 L 359.025,-164.044 L 359.343,-162.033
 L 359.45,-160 L 359.343,-157.967 L 359.025,-155.956 L 358.498,-153.99 L 357.768,-152.089 L 356.844,-150.275
 L 355.735,-148.568 L 354.454,-146.985 L 353.015,-145.546 L 351.432,-144.265 L 349.725,-143.156 L 347.911,-142.232
 L 346.01,-141.502 L 344.044,-140.975 L 342.033,-140.657 L 340,-140.55 L 337.967,-140.657 L 335.956,-140.975
 L 333.99,-141.502 L 332.089,-142.232 L 330.275,-143.156 L 328.568,-144.265 L 326.985,-145.546 L 325.546,-146.985
 L 324.265,-148.568 L 323.156,-150.275 L 322.232,-152.089 L 321.502,-153.99 L 320.975,-155.956 L 320.657,-157.967
 z
M 309.5,-221.75 L 315.5,-221.75 L 315.5,-218.75 L 321.5,-218.75 L 321.5,-221.75 L 372.5,-221.75
 L 372.5,-218.75 L 378.5,-218.75 L 378.5,-221.75 L 423.5,-221.75 L 423.5,-218.75 L 429.5,-218.75
 L 429.5,-221.75 L 435.5,-221.75 L 435.5,-278.25 L 429.5,-278.25 L 429.5,-281.25 L 423.5,-281.25
 L 423.5,-278.25 L 378.5,-278.25 L 378.5,-281.25 L 372.5,-281.25 L 372.5,-278.25 L 321.5,-278.25
 L 321.5,-281.25 L 315.5,-281.25 L 315.5,-278.25 L 309.5,-278.25 z
M 380,38.25 L 386,38.25 L 386,41.25 L 392,41.25 L 392,38.25 L 434.5,38.25
 L 434.5,41.25 L 440.5,41.25 L 440.5,38.25 L 446.5,38.25 L 446.5,-18.25 L 440.5,-18.25
 L 440.5,-21.25 L 434.5,-21.25 L 434.5,-18.25 L 392,-18.25 L 392,-21.25 L 386,-21.25
 L 386,-18.25 L 380,-18.25 z
" stroke="black" fill="lightgray" stroke-width="0.5"/></svg>
