<?xml version="1.0" encoding="UTF-8" standalone="no"?>
<svg
   xmlns:dc="http://purl.org/dc/elements/1.1/"
   xmlns:cc="http://creativecommons.org/ns#"
   xmlns:rdf="http://www.w3.org/1999/02/22-rdf-syntax-ns#"
   xmlns:svg="http://www.w3.org/2000/svg"
   xmlns="http://www.w3.org/2000/svg"
   xmlns:sodipodi="http://sodipodi.sourceforge.net/DTD/sodipodi-0.dtd"
   xmlns:inkscape="http://www.inkscape.org/namespaces/inkscape"
   width="63.499996mm"
   height="63.052738mm"
   viewBox="-35 -301 63.499996 63.052738"
   version="1.1"
   id="svg13746"
   sodipodi:docname="support_sis.svg"
   inkscape:version="0.92.2 2405546, 2018-03-11">
  <metadata
     id="metadata13752">
    <rdf:RDF>
      <cc:Work
         rdf:about="">
        <dc:format>image/svg+xml</dc:format>
        <dc:type
           rdf:resource="http://purl.org/dc/dcmitype/StillImage" />
        <dc:title>OpenSCAD Model</dc:title>
      </cc:Work>
    </rdf:RDF>
  </metadata>
  <defs
     id="defs13750" />
  <sodipodi:namedview
     pagecolor="#ffffff"
     bordercolor="#666666"
     borderopacity="1"
     objecttolerance="10"
     gridtolerance="10"
     guidetolerance="10"
     inkscape:pageopacity="0"
     inkscape:pageshadow="2"
     inkscape:window-width="1276"
     inkscape:window-height="976"
     id="namedview13748"
     showgrid="true"
     fit-margin-top="0"
     fit-margin-left="0"
     fit-margin-right="0"
     fit-margin-bottom="0"
     inkscape:zoom="0.36409135"
     inkscape:cx="265.49869"
     inkscape:cy="-115.5484"
     inkscape:window-x="1440"
     inkscape:window-y="22"
     inkscape:window-maximized="0"
     inkscape:current-layer="svg13746">
    <inkscape:grid
       type="xygrid"
       id="grid13932"
       originx="-64.499998"
       originy="-282.47362" />
  </sodipodi:namedview>
  <title
     id="title13742">OpenSCAD Model</title>
  <g
     id="g13979"
     style="stroke:#000000"
     transform="translate(-65,0.02634)">
    <path
       sodipodi:nodetypes="ccccccccccccc"
       inkscape:connector-curvature="0"
       style="fill:none;stroke:#000000"
       id="path13906"
       d="M -34.5,-238.4736 H 28 v -6.05288 h -3 v -49.94698 h 3 v -6.05288 h -62.5 v 6.05288 h 3 v 49.94698 h -3 z" />
    <path
       inkscape:connector-curvature="0"
       style="fill:none;stroke:#000000"
       id="path13904"
       d="m -28.1,-269.5 0.1361,-2.598 0.4069,-2.569 0.6732,-2.512 0.9322,-2.428 1.1809,-2.318 1.4166,-2.181 1.637,-2.022 1.8392,-1.839 2.0214,-1.637 2.1815,-1.417 2.3176,-1.181 2.42833,-0.932 2.51247,-0.673 2.56907,-0.407 2.59753,-0.136 2.59753,0.136 2.56907,0.407 2.51247,0.673 2.42833,0.932 2.3176,1.181 2.1815,1.417 2.0214,1.637 1.8392,1.839 1.637,2.022 1.4166,2.181 1.1809,2.318 0.9322,2.428 0.6732,2.512 0.4069,2.569 0.1361,2.598 -0.1361,2.598 -0.4069,2.569 -0.6732,2.512 -0.9322,2.428 -1.1809,2.318 -1.4166,2.181 -1.637,2.022 -1.8392,1.839 -2.0214,1.637 -2.1815,1.417 -2.3176,1.181 -2.42833,0.932 -2.51247,0.673 -2.56907,0.407 -2.59753,0.136 -2.59753,-0.136 -2.56907,-0.407 -2.51247,-0.673 -2.42833,-0.932 -2.3176,-1.181 -2.1815,-1.417 -2.0214,-1.637 -1.8392,-1.839 -1.637,-2.022 -1.4166,-2.181 -1.1809,-2.318 -0.9322,-2.428 -0.6732,-2.512 -0.4069,-2.569 z" />
  </g>
  <g
     id="g13975"
     style="stroke:#ff0000"
     transform="translate(-65,0.02634)">
    <path
       sodipodi:nodetypes="ccccccccccccccccccccc"
       inkscape:connector-curvature="0"
       style="fill:none;stroke:#ff0000"
       id="path13902"
       d="m 30.5,-250.47352 h 3 v 11.99992 H 90 v -11.99992 h 3 v -6.05287 h -3 v -25.94716 h 3 v -6.05287 h -3 v -11.99992 H 33.5 v 11.99992 h -3 v 6.05287 h 3 v 25.94716 h -3 z" />
    <path
       inkscape:connector-curvature="0"
       style="fill:none;stroke:#ff0000"
       id="path13900"
       d="m 36.9,-269.5 0.1361,-2.598 0.4069,-2.569 0.6732,-2.512 0.9322,-2.428 1.1809,-2.318 1.4166,-2.181 1.637,-2.022 1.8392,-1.839 2.0214,-1.637 2.1815,-1.417 2.3176,-1.181 2.4283,-0.932 2.5125,-0.673 2.5691,-0.407 2.5975,-0.136 2.5975,0.136 2.5691,0.407 2.5125,0.673 2.4283,0.932 2.3176,1.181 2.1815,1.417 2.0214,1.637 1.8392,1.839 1.637,2.022 1.4166,2.181 1.1809,2.318 0.9322,2.428 0.6732,2.512 0.4069,2.569 0.1361,2.598 -0.1361,2.598 -0.4069,2.569 -0.6732,2.512 -0.9322,2.428 -1.1809,2.318 -1.4166,2.181 -1.637,2.022 -1.8392,1.839 -2.0214,1.637 -2.1815,1.417 -2.3176,1.181 -2.4283,0.932 -2.5125,0.673 -2.5691,0.407 -2.5975,0.136 -2.5975,-0.136 -2.5691,-0.407 -2.5125,-0.673 -2.4283,-0.932 -2.3176,-1.181 -2.1815,-1.417 -2.0214,-1.637 -1.8392,-1.839 -1.637,-2.022 -1.4166,-2.181 -1.1809,-2.318 -0.9322,-2.428 -0.6732,-2.512 -0.4069,-2.569 z" />
  </g>
  <g
     id="g13955"
     style="stroke:#000000"
     transform="translate(-65,0.02634)">
    <path
       sodipodi:nodetypes="ccccccccccccc"
       inkscape:connector-curvature="0"
       style="fill:none;stroke:#000000"
       id="path13794"
       d="M 95.5,-238.4736 H 158 v -6.05288 h -3 v -49.94698 h 3 v -6.05288 H 95.5 v 6.05288 h 3 v 49.94698 h -3 z" />
    <path
       inkscape:connector-curvature="0"
       style="fill:none;stroke:#000000"
       id="path13792"
       d="m 101.9,-269.5 0.136,-2.598 0.407,-2.569 0.673,-2.512 0.932,-2.428 1.181,-2.318 1.417,-2.181 1.637,-2.022 1.839,-1.839 2.022,-1.637 2.181,-1.417 2.318,-1.181 2.428,-0.932 2.512,-0.673 2.569,-0.407 2.598,-0.136 2.598,0.136 2.569,0.407 2.512,0.673 2.428,0.932 2.318,1.181 2.181,1.417 2.022,1.637 1.839,1.839 1.637,2.022 1.417,2.181 1.181,2.318 0.932,2.428 0.673,2.512 0.407,2.569 0.136,2.598 -0.136,2.598 -0.407,2.569 -0.673,2.512 -0.932,2.428 -1.181,2.318 -1.417,2.181 -1.637,2.022 -1.839,1.839 -2.022,1.637 -2.181,1.417 -2.318,1.181 -2.428,0.932 -2.512,0.673 -2.569,0.407 -2.598,0.136 -2.598,-0.136 -2.569,-0.407 -2.512,-0.673 -2.428,-0.932 -2.318,-1.181 -2.181,-1.417 -2.022,-1.637 -1.839,-1.839 -1.637,-2.022 -1.417,-2.181 -1.181,-2.318 -0.932,-2.428 -0.673,-2.512 -0.407,-2.569 z" />
  </g>
  <g
     id="g13971"
     style="stroke:#000000"
     transform="translate(-65,0.02634)">
    <path
       sodipodi:nodetypes="ccccccccccccccccccccc"
       inkscape:connector-curvature="0"
       style="fill:none;stroke:#000000"
       id="path13790"
       d="m 160.5,-250.47352 h 3 v 11.99992 H 220 v -11.99992 h 3 v -6.05287 h -3 v -25.94716 h 3 v -6.05287 h -3 v -11.99992 h -56.5 v 11.99992 h -3 v 6.05287 h 3 v 25.94716 h -3 z" />
    <path
       inkscape:connector-curvature="0"
       style="fill:none;stroke:#000000"
       id="path13788"
       d="m 166.9,-269.5 0.136,-2.598 0.407,-2.569 0.673,-2.512 0.932,-2.428 1.181,-2.318 1.417,-2.181 1.637,-2.022 1.839,-1.839 2.022,-1.637 2.181,-1.417 2.318,-1.181 2.428,-0.932 2.512,-0.673 2.569,-0.407 2.598,-0.136 2.598,0.136 2.569,0.407 2.512,0.673 2.428,0.932 2.318,1.181 2.181,1.417 2.022,1.637 1.839,1.839 1.637,2.022 1.417,2.181 1.181,2.318 0.932,2.428 0.673,2.512 0.407,2.569 0.136,2.598 -0.136,2.598 -0.407,2.569 -0.673,2.512 -0.932,2.428 -1.181,2.318 -1.417,2.181 -1.637,2.022 -1.839,1.839 -2.022,1.637 -2.181,1.417 -2.318,1.181 -2.428,0.932 -2.512,0.673 -2.569,0.407 -2.598,0.136 -2.598,-0.136 -2.569,-0.407 -2.512,-0.673 -2.428,-0.932 -2.318,-1.181 -2.181,-1.417 -2.022,-1.637 -1.839,-1.839 -1.637,-2.022 -1.417,-2.181 -1.181,-2.318 -0.932,-2.428 -0.673,-2.512 -0.407,-2.569 z" />
  </g>
  <g
     id="g13967"
     style="stroke:#000000"
     transform="translate(-65,0.02634)">
    <path
       sodipodi:nodetypes="ccccccccccccc"
       inkscape:connector-curvature="0"
       style="fill:none;stroke:#000000"
       id="path13780"
       d="M 225.5,-238.4736 H 288 v -6.05288 h -3 v -49.94698 h 3 v -6.05288 h -62.5 v 6.05288 h 3 v 49.94698 h -3 z" />
    <path
       inkscape:connector-curvature="0"
       style="fill:none;stroke:#000000"
       id="path13778"
       d="m 231.9,-269.5 0.136,-2.598 0.407,-2.569 0.673,-2.512 0.932,-2.428 1.181,-2.318 1.417,-2.181 1.637,-2.022 1.839,-1.839 2.022,-1.637 2.181,-1.417 2.318,-1.181 2.428,-0.932 2.512,-0.673 2.569,-0.407 2.598,-0.136 2.598,0.136 2.569,0.407 2.512,0.673 2.428,0.932 2.318,1.181 2.181,1.417 2.022,1.637 1.839,1.839 1.637,2.022 1.417,2.181 1.181,2.318 0.932,2.428 0.673,2.512 0.407,2.569 0.136,2.598 -0.136,2.598 -0.407,2.569 -0.673,2.512 -0.932,2.428 -1.181,2.318 -1.417,2.181 -1.637,2.022 -1.839,1.839 -2.022,1.637 -2.181,1.417 -2.318,1.181 -2.428,0.932 -2.512,0.673 -2.569,0.407 -2.598,0.136 -2.598,-0.136 -2.569,-0.407 -2.512,-0.673 -2.428,-0.932 -2.318,-1.181 -2.181,-1.417 -2.022,-1.637 -1.839,-1.839 -1.637,-2.022 -1.417,-2.181 -1.181,-2.318 -0.932,-2.428 -0.673,-2.512 -0.407,-2.569 z" />
  </g>
</svg>
